<?xml version="1.0" encoding="UTF-8"?>
<!DOCTYPE svg PUBLIC "-//W3C//DTD SVG 1.1//EN" "http://www.w3.org/Graphics/SVG/1.1/DTD/svg11.dtd">
<!-- Creator: CorelDRAW 2020 (64 Bit) -->
<svg xmlns="http://www.w3.org/2000/svg" xml:space="preserve" width="297mm" height="42mm" version="1.1" style="shape-rendering:geometricPrecision; text-rendering:geometricPrecision; image-rendering:optimizeQuality; fill-rule:evenodd; clip-rule:evenodd"
viewBox="0 82000 297000 46000"
 xmlns:xlink="http://www.w3.org/1999/xlink"
 xmlns:xodm="http://www.corel.com/coreldraw/odm/2003">
 <defs>
  <style type="text/css">
   <![CDATA[
    .fil0 {fill:#4E342E}
   ]]>
  </style>
 </defs>
 <g id="Layer_x0020_1">
  <metadata id="CorelCorpID_0Corel-Layer"/>
  <path class="fil0" d="M280736.4 86262.7l-253172.3 0c-1182,0 -2146.4,985.5 -2146.4,2193.6l0 418.5c0,1208.1 964.4,2193.6 2146.4,2193.6l16163.8 0c675.8,0 1227,563.5 1227,1254.3l0 1634.2c0,691 -551.2,1254.3 -1227,1254.3l-31273.9 0c-1098,0 -1993.1,915.1 -1993.1,2037.2l0 68.7c0,1122.2 895.1,2037 1993.1,2037l30814.3 0c929.1,0 1686.6,774.6 1686.6,1724l0 1109.4c0,949.6 -757.5,1724 -1686.6,1724l-17000.7 -0.2c-1941.2,0 -3525,1618.6 -3525,3603l0 1742.7c0,1984.4 1583.8,3602.8 3525,3602.8l23562.4 0c1266.4,0 2299.4,1056 2299.4,2350.3l0 1514c0,1294.5 -1033,2350.3 -2299.4,2350.3l-32124.5 -0.2c-1266.6,0 -2299.7,1055.8 -2299.7,2350.4l0 104.9c0,1286.3 1033.1,2350.4 2299.7,2350.4l254732.6 0c3105.8,0 4707.2,-2682 5638.6,-5638.6l8298 -26340.3c931.4,-2956.3 -2540.8,-5638.3 -5638.3,-5638.3zm-223197 31821.1l3082.3 0 269.6 -38.6 115.6 -462.4 38.6 -308.2 38.4 -346.8 115.6 -308.2 38.6 -269.6 77 -231.2 38.6 -269.8 0 -308.2 153.9 -231.2 0 -539.3 115.6 -577.8 0 -385.4 115.6 -269.6 38.7 -269.8 115.6 -462.2 76.9 -269.8 77 -462.4 115.6 -346.5 115.6 -539.4 0 -231.2 38.6 -269.8 77 -231.2 38.6 -269.6 38.4 -231.2 38.6 -500.8 77 -192.8 38.6 -500.8 115.6 -308.1 38.6 -269.9 0 -76.9 577.8 38.6 847.6 0 732.2 38.3 1078.7 -76.9 539.4 -77 500.8 -38.6 462.4 -77 616.4 -192.6 500.7 -231.2 385.4 -115.6 539.4 -269.8 192.6 -231 500.8 -385.4 192.8 -269.6 269.6 -385.4 346.8 -308.2 269.6 -462.4 231.2 -231.2 346.8 -577.7 269.5 -462.4 192.9 -423.8 308.1 -732 192.6 -539.4 115.6 -308.1 115.6 -539.4 77 -231.2 38.6 -231.2 115.6 -269.8 38.4 -308.2 115.6 -269.6 77.2 -539.4 77 -847.5 38.6 -269.9 77 -423.7 38.4 -423.8 -38.4 -423.8 0 -269.8 -38.6 -577.8 38.6 -385.4 -115.6 -423.8 -38.6 -269.6 -38.4 -423.7 -154.2 -423.8 -77 -269.8 -231.2 -500.8 -115.6 -308.2 -231.2 -269.8 -231.2 -308.2 -153.9 -192.6 -346.8 -308.2 -500.8 -269.8 -269.8 -115.6 -269.6 -192.6 -269.8 -76.9 -616.4 -115.6 -809.2 -115.6 -500.8 -77 -308.1 0 -578 -77.3 -539.4 0 -578 38.7 -269.6 -38.7 -2581.3 0 -231.2 38.7 -500.8 -38.7 -501 38.7 -2003.3 0 -308.2 153.9 -154.2 501 -38.4 308.2 -115.6 539.4 -38.6 308.2 -38.6 269.8 -154 616.4 -77.2 269.6 0 231.2 -38.4 269.8 -77 269.5 0 308.2 -77.2 269.8 -38.4 462.4 -115.6 346.6 -115.6 539.4 -77.2 308.4 -38.4 693.4 -38.6 231.2 -115.6 500.7 38.6 154.2 -38.6 423.8 -154 616.4 -38.6 231.2 -38.6 501 -115.6 269.6 -77 269.8 -38.3 500.8 0 462.4 -115.6 500.7 -115.6 616.4 -77.3 578 -38.3 308.2 -115.6 539.4 -38.6 231.2 -77 269.5 -38.6 231.2 -77 269.8 -38.6 539.4 -38.4 308.2 -115.6 269.6 -115.6 809.2 -38.6 578 -115.6 230.9 0 269.9 -77 231.2 0 423.7 -192.6 385.2 0 192.6 -38.6 462.4 -38.6 231.2 -154 500.8 -77 231.2 -38.6 269.8 -38.6 500.7 -115.6 231.2 -154 886.2 -38.6 231.2 -38.4 269.6 -115.6 462.4 -38.6 269.6 -115.6 501 -115.6 577.7 -115.6 539.4 0 231.2 -115.6 539.4 38.6 269.8 -115.6 231.2 0 732 231.2 192.6 693.4 -38.6 269.8 38.6 616.4 38.6zm6048.8 -14833.2l38.6 -346.8 115.6 -539.4 0 -346.5 192.6 -963.5 77 -346.5 0 -308.2 38.6 -462.4 115.6 -616.4 77 -385.4 115.6 -770.6 115.6 -462.4 77 -269.5 76.9 -655 38.7 -385.2 76.9 -192.8 192.9 -462.2 269.5 -77.2 886.2 -38.4 1040.2 38.4 346.8 77.2 423.8 308.2 231.2 346.8 154.2 462.2 0 655 -77.2 1001.7 -154 1078.8 -154.2 655 -154 346.8 -77.2 346.8 -192.6 539.4 -154.2 230.9 -269.6 423.8 -423.8 385.4 -616.4 462.4 -269.8 115.6 -731.9 77 -423.8 77 -1001.8 0zm13677.2 14871.6l308.2 -38.4 578 -38.6 346.5 -38.6 385.4 38.6 115.6 -346.8 115.6 -269.6 38.4 -462.4 38.6 -269.8 0 -231 38.6 -269.8 38.4 -500.8 0 -231.2 77.2 -269.8 -38.6 -230.9 115.6 -539.4 0 -308.4 77 -231 38.6 -308.4 154 -809 77.2 -308.2 0 -809.2 154 -308.1 77.2 -539.4 0 -231.2 77 -539.4 192.6 -500.8 0 -655 115.6 -809.2 38.6 -308.1 115.6 -539.4 77 -231.2 38.4 -154 269.8 38.6 154.2 154 154 308.2 76.9 308.2 154.3 308.4 76.9 385.2 115.6 539.3 77 192.6 38.6 539.4 154.3 501 76.9 500.8 77 269.6 154.2 462.4 38.4 269.8 231.2 693.3 0 462.4 154.2 385.2 115.6 423.8 38.4 269.8 115.6 231.2 0 269.6 115.6 269.8 77.2 500.8 77 115.5 115.6 308.2 0 308.2 231.2 578 115.6 423.8 77 192.6 115.6 462.4 77 192.6 346.8 346.8 231.2 38.6 346.8 -38.6 308.2 0 423.7 -38.6 500.8 0 1001.8 -115.6 809 -115.6 501 0 423.8 -77 192.5 -38.4 115.6 -501 -269.8 -732 -77 -346.8 -38.6 -269.6 -38.3 -462.4 -269.9 -654.9 -76.9 -539.4 -423.8 -1387 -77 -500.7 -192.8 -578 0 -231.2 -154 -500.8 -77 -308.2 -115.6 -269.8 -77.2 -539.4 -77 -231.2 -115.6 -500.8 -115.6 -231.2 -77 -500.7 -38.6 -308.5 -154 -230.9 -77.2 -501 0 -346.8 -192.6 -577.8 -115.6 -308.2 0 -346.8 269.8 -38.6 539.4 -269.6 770.6 -501 539.4 -577.7 192.6 -192.6 423.7 -501 115.6 -231.2 308.2 -500.8 154.2 -346.8 115.6 -269.6 346.6 -501 192.8 -462.1 115.4 -269.8 77.2 -231.2 77 -269.6 154.2 -462.4 115.6 -385.2 77 -616.6 115.6 -616.4 0 -269.5 -38.6 -578 38.6 -269.8 115.6 -539.4 0 -308.2 -115.6 -732 0 -269.8 -77.2 -732 -115.4 -616.3 -269.8 -539.4 -269.6 -462.4 -154.2 -192.6 -192.6 -231.2 -154.2 -154 -462.4 -269.8 -192.6 -115.6 -231.2 -115.6 -346.5 -231.2 -269.8 -77 -346.8 -153.9 -423.8 -192.9 -308.2 -77 -616.4 0 -423.8 -76.9 -578 -38.7 -500.7 -76.9 -346.8 0 -578 -77 -308.2 -77.3 -385.2 38.7 -269.8 38.6 -1656.5 0 -2311.8 -38.6 -539.4 0 -385.1 76.9 -269.8 308.2 -154 192.9 38.4 423.7 -154 308.2 0 308.2 -38.6 269.6 -38.6 308.4 -154 1078.8 -115.6 616.3 -115.6 462.4 -77 269.6 0 231.2 -38.6 500.8 0 231.2 -38.6 231.2 -115.6 539.4 -115.6 616.3 -115.4 539.4 -38.6 231.2 -38.6 539.4 -154 462.4 -38.6 231.2 0 269.6 -38.6 231.2 -77 500.7 -38.6 269.9 -38.4 231.2 0 269.5 -192.6 809.2 0 308.2 -77.2 539.4 -77 500.8 -38.6 231.2 -77 423.8 -77 269.8 0 231.2 -115.6 230.9 -77 269.8 -38.6 462.4 38.6 231.2 -77.2 231 -192.6 269.8 0 346.8 -38.6 308.2 -38.4 269.6 -154.2 539.3 0 308.2 -38.3 578 -77.3 385.4 0 346.6 -192.5 693.6 0 578 -154 308.2 38.4 308.2 -38.4 269.5 -77.2 308.2 -38.4 539.4 -115.6 308.4 38.4 269.6 -115.6 308.2 0 269.8 -115.6 539.4 -38.4 269.6 0 231.2 -115.6 269.8 0 269.5 -77 231.2 0 269.6 -38.6 424 -38.6 385.2 -115.6 385.2 0 346.8 77.2 231.2 346.6 77 1194.3 77.2 501 0 1387 38.4zm5008.4 -15873.4l-654.7 -77 38.3 -308.2 -38.3 -269.8 38.3 -269.5 115.6 -616.4 77 -346.8 -38.3 -346.8 115.6 -346.8 76.9 -577.8 0 -269.8 115.6 -616.3 77 -308.2 38.6 -501 38.4 -577.8 77.2 -616.6 115.6 -269.6 115.6 -423.8 346.6 -115.6 924.8 38.6 847.6 115.4 346.8 192.8 269.5 269.6 192.6 346.8 115.6 809 38.6 847.8 -38.6 616.3 -115.6 308.2 0 308.2 -269.6 539.4 -38.6 231.2 -77 308.2 -192.5 501 -269.8 230.9 -154 231.2 -269.8 308.2 -269.6 154.2 -385.4 231.2 -231.2 154 -462.2 115.6 -616.6 0zm12174.9 15873.4l308.2 -38.4 1078.7 38.4 231.2 -154 154.3 -269.8 115.6 -192.6 115.6 -423.8 230.9 -578 385.4 -732 154 -462.4 115.6 -269.5 77.2 -269.8 269.6 -500.8 192.6 -423.8 1040.4 0 1695.1 38.6 616.4 77 847.6 38.4 38.6 308.4 0 1810.7 -38.6 385.2 38.6 385.4 38.6 693.4 77 385.4 154.2 115.6 577.7 0 501.1 38.4 385.1 -38.4 269.6 -38.6 462.4 38.6 308.2 0 847.5 -38.6 539.4 0 308.5 38.6 269.5 -38.6c154.2,0 269.8,38.6 423.8,0 192.6,-115.6 154.2,-462.4 115.6,-616.4l0 -809.2 -38.6 -847.6 0 -346.8 -38.4 -308.1 38.4 -539.4 0 -578 -38.4 -269.6 -38.6 -500.8 0 -231.2 -77 -1464.2 38.6 -269.5 -38.6 -539.4 38.6 -578 -38.6 -577.8 0 -269.8 -38.6 -1772.3 0 -1155.8 -38.4 -308.2 -38.6 -462.4 0 -1502.5 -77 -423.8 -38.6 -616.4 0 -231.2 -38.6 -500.8 38.6 -231.2 -38.6 -539.3 0 -770.6 -77 -539.4 0 -847.6 38.6 -269.8 -38.6 -577.7 0 -539.4 -77 -770.6 -38.6 -501 0 -539.4 -38.3 -1387 0 -693.3 -77.3 -231.2 0 -847.6 -115.6 -1656.8 -269.5 -192.5 -192.6 -77 -616.6 0 -346.6 38.3 -269.8 -76.9 -346.8 0 -732 38.6 -616.3 0 -385.5 38.3 -731.9 -38.3 -385.2 0 -269.8 38.3 -154 423.8 -115.6 231.2 -115.6 269.8 -346.8 693.4 -269.8 501 -231 693.4 -77.2 192.6 -154 231.2 -231.2 423.7 -76.9 269.8 -77.3 231.2 -115.6 231 -76.9 269.8 -346.8 693.6 -115.6 269.6 -115.6 385.2 -231 346.8 -115.6 231.2 -192.8 501 -308.2 808.9 -154 231.2 -192.6 269.6 -115.6 539.4 -231.2 501 -77.2 192.6 -115.4 500.7 -192.8 269.9 -115.6 500.7 -115.6 231.2 -230.9 423.8 -192.9 655 -269.5 500.8 -115.6 308.4 -308.2 1078.8 -115.6 230.9 -192.6 539.4 -115.6 231.2 -115.6 269.8 -38.6 231.2 -231.2 539.4 -77 269.6 -231.2 462.4 -192.6 308.2 -77 346.8 -77.2 269.5 -269.6 539.4 -115.6 269.8 -192.6 500.8 -115.6 231.2 -38.6 269.6 -77 231.2 -192.5 462.4 -192.9 269.8 -77 230.9 -308.1 693.6 -154.3 500.8 -423.7 924.8 -192.6 462.2 -231.2 462.4 -385.2 1155.7 -308.2 501 -231.2 462.4 -38.6 231 -77 269.8 77 308.2 346.8 77 2812.5 38.6 269.6 38.6 578 38.4zm6357 -9285.2l-346.8 -38.3 -423.8 -38.7 -308.2 0 -269.5 -231.2 115.6 -269.5 76.9 -346.8 77 -269.8 192.6 -655 154.2 -269.6 192.6 -578 38.6 -269.6 231.2 -847.5 115.6 -346.8 115.6 -269.8 115.4 -346.6 154.2 -269.8 38.6 -269.6 154 -385.4 154.2 -308.2 192.6 -616.4 115.6 -385.4 192.6 -616.3 154.2 -500.8 308.2 -115.6 38.6 886.2 -38.6 1386.9 -38.6 1464 38.6 924.8 -77 308.1 0 655 -38.6 269.6 0 1001.8 -38.6 308.2 38.6 308.2 -38.6 539.3 -231.2 192.6 -1155.8 0zm11173.1 9323.8l462.2 -115.6 3351.9 0 462.4 -192.6 76.9 -231.2 115.6 -539.4 77.3 -539.4 230.9 -1078.8 192.9 -847.5 -38.7 -308.2 115.6 -539.4 77 -308.4 192.6 -809 115.6 -500.7 38.6 -269.9 154.2 -500.7 115.6 -616.6 115.4 -539.4 -38.4 -269.6 38.4 -231.2 38.6 -269.6 154.2 -462.4 38.4 -269.8 77.2 -230.9 38.4 -231.2 0 -385.4 77.2 -346.8 115.4 -577.8 115.6 -539.4 0 -231.2 77.2 -231.2 38.4 -539.4 154.2 -269.5 115.6 -462.4 38.4 -500.8 0 -269.8 115.6 -231.2 115.6 -539.4 77.2 -269.6 77 -578 192.6 -462.4 0 -269.5 38.6 -231.2 38.4 -462.4 0 -231.2 154.2 -500.8 192.6 -539.4 -77 -192.6 153.9 -308.2 154.2 -693.6 38.7 -269.5 76.9 -501 77 -231.2 0 -231.2 115.6 -269.6 -38.3 -231.2 76.9 -269.6 346.8 -38.6 1618.2 38.6 385.2 0 346.8 -38.6 462.4 0 346.5 38.6 385.4 -38.6 154 -346.8 38.6 -539.4 77 -269.6 154.2 -501 38.4 -462.1 38.6 -231.2 77 -269.8 77.2 -462.2 0 -231.2 77 -269.8 38.6 -231.2 0 -269.6 77 -308.2 38.6 -269.8 0 -231.2 -77.2 -308.2 -346.8 -76.9 -539.4 -38.7 -2388.5 0 -346.8 -38.3 -809.2 38.3 -577.7 -38.3 -2465.8 38.3 -847.8 0 -269.5 -38.3 -2851.2 0 -269.5 38.3 -269.9 0 -192.5 -38.3 -1001.8 0 -269.6 38.3 -346.8 269.9 -192.6 423.7 -38.6 231.2 0 539.4 -115.6 231.2 -154 500.8 -38.6 539.4 -77 231.2 -154.2 539.4 38.6 269.5 0 308.2 -115.6 308.4 -77 462.2 115.6 346.8 346.6 115.6 308.4 0 385.2 38.6 346.8 0 269.6 -38.6 539.4 38.6 2080.5 0 -38.6 616.4 -77 578 -77 269.6 -115.6 500.7 0 231.2 -38.6 269.8 0 231.2 -38.4 231.2 -192.8 616.4 -77 269.6 -38.6 269.8 0 308.2 -77 192.6 0 385.4 -192.6 423.8 38.6 269.5 -115.6 578 -77.2 231.2 0 269.6 -153.9 231.2 -77.3 269.8 0 346.6 -115.3 385.4 0 539.4 -77.3 231.2 -192.5 462.1 76.9 269.8 -76.9 269.6 -154.3 578 -192.5 539.4 -77 269.6 -38.6 269.8 77.2 385.1 -192.8 385.5 -38.4 539.3 -77.2 231.2 -77 500.8 -38.4 269.8 -77.2 269.6 -115.6 578 -115.6 462.1 0 308.5 -192.6 808.9 38.6 308.2 -38.6 269.8 -192.6 539.4 0 269.6 -38.6 539.4 -77 231.2 -38.6 578 -77 269.5 -269.6 809.2 -38.6 809 -77 578 346.6 308.2 269.8 0 346.8 115.6zm19225.2 500.7l847.6 -115.6 423.8 -115.6 269.6 -38.3 539.4 -115.6 308.1 -77 269.9 -38.6 886.1 -346.8 154 -115.6 462.4 -308.2 462.4 -346.8 192.6 -231.2 231.2 -192.6 462.4 -462.4 77 -231 192.6 -231.2 154.2 -231.2 346.5 -500.7 192.9 -269.8 308.1 -693.6 269.6 -539.4 38.6 -385.2 192.6 -269.6 115.6 -424 0 -269.6 115.6 -462.4 192.6 -423.7 38.6 -423.8 115.6 -231.2 192.6 -462.2 -38.6 -231.2 385.4 -1348.6 115.6 -231.2 77 -539.3 77 -269.6 0 -346.8 115.6 -693.6 115.6 -231 115.6 -501 38.6 -462.1 115.6 -501 77 -500.8 153.9 -501 -38.3 -462.2 192.5 -423.8 -38.6 -385.4 77.3 -616.4 76.9 -269.8 38.7 -616.3 38.3 -577.8 77.3 -539.4 38.3 -231.2 0 -385.4 -38.3 -269.6 38.3 -231.2 77 -269.8 38.6 -500.7 0 -269.9 -38.6 -500.7 38.6 -231.2 38.6 -500.8 0 -269.8 -38.6 -308.2 -77 -732 -115.6 -578 -76.9 -269.5 -77.3 -231.2 -115.6 -231.2 -230.9 -500.8 -115.6 -269.8 -192.8 -231.2 -423.8 -385.2 -423.8 -346.8 -192.6 -231.2 -308.2 -192.6 -693.6 -462.4 -577.7 -269.5 -231.2 -77 -308.2 -38.6 -308.2 -115.6 -616.6 -77 -423.8 -38.6 -231.2 -38.4 -693.4 -38.6 -462.4 38.6 -539.3 38.4 -693.6 115.6 -385.2 38.6 -578 153.9 -231 38.7 -578 154.2 -462.4 230.9 -462.4 269.8 -269.5 192.6 -308.2 115.6 -501 346.8 -539.4 577.8 -192.6 231.2 -269.6 192.8 -308.2 462.2 -308.4 501 -154 230.9 -38.6 269.8 -346.8 500.8 -153.9 269.8 -231.2 462.4 -192.6 539.4 -154.2 462.2 -115.6 269.8 -231.2 500.8 -77 501 -192.6 269.5 -154.2 963.2 -77 539.4 -38.6 231.2 -115.4 269.6 -77.2 462.4 0 539.3 -77 269.9 -231.2 385.1 38.6 231.2 -77.2 269.6 0 231.2 -77 269.8 -115.6 231.2 0 269.6 -115.6 462.4 0 500.8 -115.6 462.3 -115.6 693.6 -77 269.6 -77 500.8 77 192.8 -154 539.4 0 269.6 -77.2 539.4 0 308.1 -153.9 539.4 -77.3 847.6 0 269.8 38.6 308.2 -115.6 385.2 0 732.2 -76.9 269.5 115.6 770.6 38.3 231.2 38.6 539.4 77 231.2 38.6 269.6 77 231.2 77.2 192.6 38.4 231.2 115.6 269.8 0 231.2 308.2 500.7 192.8 269.6 115.4 231.2 192.8 192.6 115.6 192.8 539.4 616.4 693.4 578 539.3 346.6 269.9 154.2 577.7 154.2 308.2 38.4 886.2 269.8 346.8 38.3 269.8 38.7 500.8 -38.7 1001.7 115.6zm-308.4 -5239.6l-230.9 -38.6 -308.5 -77 -308.1 -115.6 -192.6 -192.6 -231.2 -346.8 -77 -154.2 -115.6 -269.6 0 -1078.7 -115.6 -269.8 154.2 -385.2 38.4 -462.4 -115.6 -269.6 115.6 -269.8 0 -269.6 115.6 -578 0 -308.1 77.2 -269.9 0 -308.1 77 -346.6 -38.6 -154.2 77 -269.8 -38.4 -308.2 192.6 -539.4 115.6 -269.6 -38.6 -308.2 38.6 -269.8 0 -269.5 77 -539.4 77.2 -269.8 153.9 -616.4 115.6 -308.2 77 -578 77.3 -269.6 38.3 -269.8 115.6 -616.3 115.6 -539.4 154.2 -539.4 38.4 -231.2 115.6 -539.4 38.6 -308.2 0 -77 231.2 -809.2 77 -308.1 77 -269.9 231.2 -500.7 154.2 -269.8 154 -462.2 269.8 -423.8 385.2 -346.8 616.6 -231.2 308.2 -77 731.9 -38.6 616.4 269.8 269.8 346.6 154 231.2 154.2 770.6 -77 539.4 -38.6 501 -77 693.3 0 500.8 -77.2 346.8 -115.6 539.4 -77 308.2 -38.6 501 38.6 269.5 -77 269.9 -77 308.1 -77.2 462.4 -154 577.8 38.4 655 -115.6 231.2 -77 732 -115.6 308.1 -115.6 346.8 -77 886.2 -115.6 578 -115.6 346.6 38.7 115.6 0 308.2 -115.6 231.2 -38.7 308.1 -115.6 501.1 -115.6 269.5 -38.3 539.4 -115.6 308.2 -77.3 539.4 -76.9 269.8 -115.6 578 0 308.2 -77 269.5 -231.2 539.4 -269.6 539.4 -539.4 385.4 -346.8 154 -539.4 154.2 -501 0zm21691.2 -6203l1001.6 0 385.4 -38.4 462.1 -192.8 154.3 -577.8 0 -308.2 76.9 -231.2 38.7 -269.8 115.6 -500.8 0 -423.7 38.6 -269.8 76.9 -346.6 0 -886.2 -192.5 -192.6 -269.8 0 -308.2 -77.2 -3506.1 0 -770.4 -77 -231.2 77 -1541.2 0 -308.1 -38.4 -2504.4 0 -500.8 38.4 -577.9 0 -346.8 115.6 -154 154.2 -154.2 539.4 -115.6 346.8 -38.4 308.2 -115.6 539.4 0 231.2 -38.6 230.9 -77 231.2 0 269.8 -115.6 539.4 38.4 269.6 192.8 385.4 308.2 38.4 423.8 38.6 539.3 0 269.6 38.6 269.8 -38.6 3775.7 0 1001.8 38.6 2696.9 38.4zm10633.5 10903.3l269.8 -38.4 192.6 0 269.8 -38.6 1194.1 0 424.1 -154.2 616.3 -77 385.2 -77 539.4 -154.2 385.4 -269.6 423.8 -115.6 500.8 -231.2 231.2 -154.2 346.8 -308.2 539.3 -423.8 539.4 -655 269.6 -462.1 192.6 -231.2 192.8 -269.8 38.4 -231.2 308.2 -308.2 192.8 -385.2 269.6 -770.6 269.8 -539.4 153.9 -539.3 38.7 -231.2 231.2 -500.8 38.3 -423.8 77.3 -231.2 269.5 -501 115.6 -269.6 77 -462.4 38.6 -500.7 231.2 -809.2 38.6 -385.2 115.4 -308.2 77.2 -308.2 77 -886.2 77 -578 154.2 -731.9 0 -269.8 192.6 -616.4 0 -1078.8 38.6 -269.6 77 -654.9 0 -269.9 115.6 -616.3 0 -231.2 38.6 -269.6 -77.2 -269.8 38.6 -269.6 -38.6 -231.2 -115.6 -539.4 115.6 -231.2 -38.4 -500.7 -77.2 -770.6 38.6 -269.8 -192.6 -539.4 0 -269.6 -115.6 -655 -154.2 -269.8 -231.2 -577.7 -154 -539.4 -192.6 -346.8 -154.2 -192.6 -308.2 -462.4 -578 -770.6 -231.2 -192.6 -269.5 -192.6 -385.2 -231.2 -154.2 -77.2 -192.6 -115.6 -655 -192.6 -231.2 -77 -77 0 -539.3 -154.2 -308.2 -115.6 -269.8 0 -578 -77 -346.6 -38.3 -308.4 -38.6 -616.4 0 -231.2 38.6 -423.8 -38.6 -963.1 0 -770.6 38.6 -847.6 -38.6 -308.2 0 -616.4 76.9 -269.8 -38.3 -462.1 -38.6 -269.8 0 -385.2 115.6 -115.6 423.7 -77.2 115.6 -115.6 385.2 -77 269.8 -38.4 462.2 -38.6 269.8 -115.6 231.2 -77 462.4 -77.2 539.4 -115.6 500.7 -38.4 269.6 0 231.2 -77 269.8 -192.8 693.4 -77 462.4 -77 809.2 -38.6 308.2 0 539.4 -154 462.1 -77.2 462.4 0 231.2 -115.6 462.4 -38.4 269.6 -77.2 462.4 -38.4 269.5 0 231.2 -38.6 269.9 -77 269.5 -115.6 269.8 -192.5 1078.8 -77.3 231.2 -115.6 539.4 -77 231.2 -76.9 269.6 0 770.5 -154.3 462.4 -38.3 231 -115.6 462.4 -77.3 269.8 -76.9 500.8 -38.4 269.8 -115.6 539.4 -38.6 308.2 -115.6 539.4 0 847.5 -154.2 269.6 -38.4 231.2 -38.6 501 -77 308.2 -115.6 539.4 0 308.2 -77 385.1 -154.2 308.2 -77 423.8 -38.6 308.4 -77 539.4 0 308.2 -77 308.2 -77.2 385.2 -115.6 539.3 -38.4 231.2 -77.2 539.4 -192.6 462.4 -38.4 346.8 0 886 308.2 77.2 539.4 77 1155.8 0 269.8 -38.6 308.2 0 231.1 38.6 539.4 77 346.6 0 308.2 38.6 462.4 -38.6 578 77.2 500.7 -38.6 501.1 38.6 885.9 38.4zm-154 -5239.7l-539.4 -154.2 77 -346.8 115.6 -654.7 38.6 -578 77 -578 154 -539.4 38.6 -269.6 154.2 -693.6 115.6 -577.7 0 -231.2 192.6 -539.4 38.4 -231.2 0 -501 154.2 -1001.6 77 -269.8 -38.4 -231.2 77 -269.6 115.6 -539.3 0 -231.2 115.6 -539.4 77 -231.2 115.6 -539.4 0 -269.6 77 -616.6 115.6 -539.4 0 -230.9 115.6 -231.2 38.6 -308.2 0 -269.8 77 -269.6 38.6 -231.2 77 -847.6 77 -539.4 77.2 -501 154 -539.3 115.5 -578 77 -269.6 0 -231.2 115.6 -269.6 115.6 -308.4 346.8 -38.4 500.8 38.4 616.6 77.2 655 192.6 192.6 154.2 231.2 192.6 269.6 500.8 231.2 655 38.6 308.1 77 1040.4 -38.7 1117.2 38.7 809.2 -77 808.9 -38.6 231.2 -115.6 809.2 0 539.4 -192.6 539.4 -77 308.2 -38.6 269.6 -77 577.9 -77.2 539.4 -77 500.8 -38.6 269.8 -115.4 462.2 -77.2 231.2 -77 192.8 -38.6 231 -154 501 -115.6 539.4 -115.6 423.7 -231.2 732 -192.6 500.8 -192.6 385.4 -154.2 385.2 -154.2 269.8 -115.4 231.2 -269.8 308.2 -308.2 308.1 -192.5 154 -423.8 231.2 -308.4 154.2 -385.2 115.6 -1155.8 0zm16258.8 5201.3l308.2 -38.6 616.3 -38.6 809 0 231.2 -38.4 501 38.4 616.4 -38.4 3660.1 0 115.6 -423.8 76.9 -346.8 38.7 -655 115.6 -578 38.3 -269.6 77.3 -231.2 76.9 -269.8 0 -500.7 154.3 -847.6 38.3 -308.2 77.3 -423.8 38.3 -154.2 38.6 -308.2 -269.8 -115.6 -1078.7 38.6 -847.6 -38.6 -539.4 -38.6 -2273.1 0 -539.4 -77 -154 -153.9 0 -308.5 154 -1001.5 115.6 -693.6 77 -269.6 38.6 -385.4 77 -346.8 115.6 -385.2 154.2 -1078.7 115.6 -500.8 154 -423.8 346.8 0 501 -38.6 423.7 0 655 38.6 963.2 -38.6 346.6 0 578 -38.6 385.1 0 77.3 -77 76.9 -539.4 115.6 -616.4 77 -539.3 115.6 -308.2 0 -269.8 115.6 -578 77 -269.6 115.6 -539.4 77.2 -423.8 0 -308.2 77 -462.4 -231.2 -308.1 -308.2 -77 -1001.7 0 -732 77 -1348.6 -38.7 -693.3 0 76.9 -693.3 115.6 -385.4 -38.6 -308.2 77.3 -269.6 115.6 -539.4 76.9 -539.4 115.6 -732.2 0 -308.1 115.6 -231.2 0 -539.4 38.4 -269.6 115.6 -462.4 924.8 -38.6 2504.3 0 462.2 -38.4 1618.2 0 385.4 -38.6 115.6 -500.8 38.3 -231.2 154.2 -539.4 0 -308.1 115.6 -578 38.4 -231.2 38.6 -269.6 115.6 -269.8 0 -231.2 77 -963.2 0 -231.2 115.6 -423.8 -192.6 -269.5 -346.8 -38.7 -385.1 -38.3 -346.8 38.3 -847.6 0 -1117.4 38.7 -308.2 -38.7 -886.2 -38.3 -2889.5 38.3 -847.5 38.7 -385.2 0 -308.4 -38.7 -269.6 0 -462.4 38.7 -269.6 -38.7 -231.2 38.7 -655 0 -308.1 231.2 -38.7 231.2 -115.5 230.9 -115.6 462.4 77.2 269.8 -38.6 231.2 -38.6 500.8 -38.4 231.2 -77.2 231.2 -38.4 500.8 -77.2 269.5 38.6 231.2 -115.6 269.8 0 269.6 -115.6 231.2 -77 539.4 -154.2 501 -38.4 269.6 38.4 231.2 -38.4 269.6 -77.2 308.4 -154 230.9 -38.6 809.2 -115.6 269.6 -38.4 1078.8 -154.2 578 -115.6 539.4 38.6 231.2 -77.2 269.5 -115.4 308.5 -231.2 1155.7 -154.2 231.2 0 269.6 -38.6 269.8 -38.4 308.2 -115.6 269.6 -77 577.9 -154.2 539.4 0 578 -154.2 809 -77 269.8 -115.6 577.8 -38.3 269.8 -115.6 269.5 -115.6 501.1 38.3 231.1 -153.9 462.2 0 192.6 -77 501 -77.3 308.2 0 269.6 -76.9 616.6 -154.3 308.2 -76.9 500.7 -38.7 539.4 -38.3 269.8 -77 308.2 0 269.6 -77.2 269.8 0 346.8 -115.6 308.2 -38.4 616.4 -154.2 577.9 -77 616.4 -77 578 -77.2 346.6 -115.6 346.8 115.6 346.8 346.8 77 2041.9 0 269.8 38.6 1001.6 0 732.2 38.6zm10556.2 0l501 -38.6 269.6 38.6 1078.8 0 385.4 -38.6 3159.1 0 770.5 -38.6 539.4 77.2 578 -38.6 693.4 38.6 847.8 -115.6 500.8 -77.2 731.9 0 308.2 -269.6 154.2 -616.4 77 -578 38.6 -231.2 0 -269.6 115.6 -269.8 192.6 -1348.3 115.6 -308.4 -38.6 -269.6 77 -269.8 38.6 -577.8 -231.2 -115.6 -1001.5 0 -847.8 38.6 -2003.4 0 -346.8 -38.6 -385.1 0 -192.6 -192.6 0 -385.4 77 -385.1 38.3 -423.8 77.3 -269.8 38.3 -231.2 38.6 -269.6 0 -385.4 77 -346.6 38.6 -501 154.3 -500.8 38.3 -539.3 77 -308.2 0 -269.8 154.2 -616.4 38.6 -269.6 38.4 -308.4 115.6 -539.4 38.6 -577.8 154 -616.6 38.6 -269.5 115.6 -578 77 -269.6 0 -539.4 77.2 -269.8 115.6 -809 0 -308.1 77 -269.9 -38.6 -308.1 154.2 -269.6 115.6 -501 115.6 -539.4 77 -269.6 38.6 -269.8 77 -308.2 -77 -308.2 154 -269.8 77 -539.4 154.2 -539.3 0 -308.2 115.6 -539.4 308.2 -1348.4 77 -385.4 77.2 -423.7 115.6 -809 77 -231.2 0 -269.8 231.2 -924.6 0 -269.8 38.3 -269.6 -115.6 -462.4 -770.3 -38.3 -1502.8 0 -1425.3 -38.6 -924.8 0 -616.4 76.9 -115.6 231.2 -192.6 770.6 -77 231.2 0 269.6 -38.6 462.4 -154.2 462.4 -115.6 616.4 -38.4 616.3 -154.2 269.8 0 231.2 -38.3 269.6 0 269.8 -154.3 231 -76.9 424 -38.7 500.8 -76.9 308.2 76.9 269.8 -76.9 308.2 -154.3 539.4 -115.6 308.1 38.7 308.2 -115.6 809.2 -77 462.2 0 269.8 -192.9 500.8 0 539.3 -38.3 308.2 -192.6 501 -77.2 462.2 -77 501 -231.2 1078.8 0 192.6 -154 539.3 -154.2 1155.8 -192.6 539.4 0 269.8 -154.2 539.4 0 231.2 -38.4 269.6 -38.6 231.2 0 539.3 -77 231.2 -77.2 539.4 -38.4 231.2 0 231 -115.6 269.8 -115.6 500.8 38.6 231.2 -115.6 269.8 -77.2 231.2 -192.6 539.4 0 462.1 -77 346.8 -77 500.8 -38.6 231.2 0 269.8 -154.2 500.8 0 578 -154 500.7 -38.6 231.2 -38.6 269.6 -115.3 385.4 -154.2 385.2 -38.7 231.2 38.7 231.2 38.6 269.8 153.9 231 308.2 192.8zm17183.3 38.4l1001.6 0 424 -115.6 115.4 -346.6 38.6 -308.4 115.6 -500.8 77 -539.4 115.6 -500.8 154.2 -924.7 115.6 -423.8 0 -269.6 77 -501 76.9 -539.4 115.6 -539.4 0 -308.2 154.3 -500.7 38.3 -308.2 115.6 -578 -38.3 -423.8 192.5 -385.2 0 -539.4 38.7 -192.8 76.9 -539.4 0 -308.2 154 -539.3 0 -308.2 154.2 -539.4 77 -462.4 77.2 -500.8 115.6 -500.8 0 -308.4 115.4 -269.6 154.2 -539.3 192.6 -1155.8 115.6 -385.4 77 -500.8 0 -269.8 38.6 -308.2 38.6 -269.5 0 -346.8 115.6 -346.8 115.6 -539.4 38.4 -192.6 115.6 -500.8 115.6 -462.4 77 -500.8 38.6 -269.8 38.6 -462.4 38.4 -269.5 77.2 -462.4 77 -231.2 77 -423.8 192.5 -1001.8 38.7 -231 0 -269.8 38.6 -231.2 0 -308.1 153.9 -346.8 77.3 -539.4 115.3 -192.6 0 -346.8 115.6 -154 -38.3 -231.2 38.3 -423.8 77.3 -115.6 0 -501 38.3 -230.9 -153.9 -385.5 -423.8 -115.6 -269.8 38.7 -2042 0 -269.5 38.6 -539.4 0 -346.8 -38.6 -578 38.6 -269.6 38.3 -231.2 154.3 -269.8 115.6 -269.6 385.1 -38.6 269.8 -77 231 -77 578 -154.2 423.8 -77 423.8 -38.6 462.4 -77 231.2 -38.6 231.2 -115.6 500.7 -77 539.4 -77 192.6 -38.6 501 -38.6 308.2 38.6 269.6 -154.2 501 -38.4 269.6 -115.6 501 -38.6 230.9 -153.9 462.4 38.3 269.8 -38.3 231 -77.3 539.4 -115.6 269.8 0 539.4 -115.3 808.9 -192.8 539.4 -115.6 501 -77 462.4 0 500.8 -154 308.2 -77.2 539.4 0 269.8 -154 539.4 0 539.3 -77.2 539.4 -38.4 231 -38.6 269.8 -77 269.6 0 231.2 -77 578 -269.8 847.5 38.6 269.8 -77.2 269.6 -38.4 231.2 -77.2 269.6 0 269.8 -77 462.4 -77 346.6 -115.6 346.8 -77 346.8 -115.6 423.7 -115.6 693.6 38.4 231 -154 501 -38.6 269.6 -77 308.2 -38.6 269.8 -115.6 578 -38.4 308.2 -77.2 539.3 -77 269.6 -38.3 578 -192.9 539.4 38.6 578 308.2 269.6 308.2 77 308.2 -38.4 269.8 38.4 423.8 38.6 269.6 -38.6 308.4 0 539.4 77.2 1117.1 0 269.8 38.4zm12598.5 -77l847.5 0 308.2 -38.6 269.8 -38.4 346.6 77 308.4 0 192.6 -115.6 115.6 -346.8 231.2 -423.8 154 -269.6 231.2 -423.8 154.2 -231.2 77 -231.2 115.6 -231.2 76.9 -231.2 115.6 -269.5 192.6 -578 192.6 -231.2 115.6 -269.6 77.2 -269.8 115.6 -269.6 115.6 -231.2 385.2 -693.6 269.6 -500.8 38.6 -269.8 154.2 -269.5 308.2 -693.6 192.6 -462.2 154.2 -539.4 346.6 -501 77.2 -269.6 115.6 -269.8 308.2 -500.7 0 -231.2 153.9 -231.2 115.6 -231.2 231.2 -693.4 38.6 -231.2 115.6 -192.6 154 -231.2 115.6 -231.2 192.6 -423.8 38.6 -231.2 115.6 -231.2 115.6 -462.4 154 -230.9 77.2 -231.2 192.6 -462.4 269.6 -423.8 231.2 -423.8 77.2 -269.8 192.6 -500.8 77 -269.5 192.6 -462.4 115.6 -192.6 269.8 -501 38.3 -308.2 115.6 -269.6 192.9 -501 77 -231.2 115.6 -231 115.6 -192.8 115.6 -500.8 76.9 -269.8 192.6 -269.5 192.6 -423.8 115.6 -231.2 38.6 -231.2 115.6 -192.6 77 -385.4 115.6 -231 77 -192.8 115.6 -231 192.6 -231.2 115.6 -423.8 77.2 -231.2 192.6 -501 115.6 -269.5 154 -231.2 115.6 -231.2 38.6 -346.8 115.6 -269.6 115.6 -231.2 38.6 -269.6 115.4 -308.4 231.1 -423.8 38.7 -231.2 0 -385.2 -385.2 -115.6 -501 0 -423.8 -38.6 -539.4 0 -154.2 -38.3 -269.6 38.3 -924.5 0 -231.2 38.6 -269.8 -38.6 -269.6 0 -231.2 -77 -308.2 77 -423.8 -115.3 -346.8 77 -423.8 231.2 -269.8 500.7 -577.7 1579.6 -231.2 501 -115.6 269.6 -154.2 539.3 -38.4 269.8 -77.2 231.2 -38.4 269.6 -308.2 500.8 -77.2 231.2 -115.6 231.2 -115.6 269.8 -38.4 231.2 -115.6 539.4 -115.6 269.6 -38.6 231.2 -346.8 808.9 -77 269.8 -115.6 500.8 -154 346.8 -154.2 192.6 -77 192.8 -231.2 462.2 -38.6 231.2 -77 269.8 -77 115.6 -38.6 230.9 -77 231.2 -154.2 423.8 -115.6 269.8 -115.6 154 -77 269.8 -153.9 500.8 -77.3 269.8 -115.6 269.6 -153.9 385.4 -38.6 231.2 -77 269.5 -192.6 385.2 -77.2 231.2 -192.6 269.8 -115.6 500.8 -77 231.2 -115.6 308.2 -269.8 501 -38.4 231 -77 231.2 -115.6 231.2 -154.2 154.2 -115.6 38.3 -38.6 -192.5 38.6 -346.8 0 -423.8 -38.6 -423.8 77.2 -462.4 38.4 -308.2 0 -269.6 38.6 -578 -38.6 -231.2 38.6 -153.9 38.6 -269.8 0 -308.2 38.4 -423.8 0 -269.6 -38.4 -269.8 0 -269.6 38.4 -308.4 0 -809 38.6 -269.8 0 -192.6 38.6 -500.7 -115.6 -231.2 38.4 -231.2 0 -308.2 38.6 -346.8 0 -539.4 115.6 -693.3 0 -809.2 38.6 -269.6 0 -269.8 -77.2 -269.6 0 -269.8 38.6 -308.2 0 -269.8 38.6 -269.6 0 -269.8 38.4 -269.6 0 -539.4 -38.4 -269.8 77 -269.5 0 -578 77 -308.2 0 -770.6 -38.6 -462.2 0 -77.2 38.6 -500.8 -115.6 -269.8 -269.6 -192.6 -269.8 -38.3 -2350.1 0 -462.4 -38.6 -616.4 38.6 -269.8 38.3 -462.2 -38.3 -462.3 153.9 -115.6 154.3 -115.6 308.1 0 385.2 -38.4 231.2 38.4 269.8 -38.4 269.6 38.4 269.8 -38.4 231 0 269.8 -38.6 269.6 38.6 231.2 38.4 539.3 -38.4 269.8 38.4 269.6 -38.4 539.4 -38.6 231.2 0 1656.8 -38.6 269.5 38.6 269.9 38.6 308.1 0 1233 77 385.2 -115.6 500.8 0 501 77 269.5 -38.4 501.1 -38.6 230.9 0 501 38.6 308.2 0 809 77 269.8 -38.6 269.6 0 308.4 -77 539.4 0 500.7 38.6 269.6 0 501 -38.6 269.6 115.6 231.2 -38.6 269.8 0 269.6 -38.4 269.8 77 231.2 0 539.4 -38.6 269.5 0 308.2 -38.4 269.8 0 539.4 77 269.6 -38.6 308.2 38.6 269.8 0 539.4 -38.6 269.5 0 539.4 76.9 269.8 0 269.6 -38.3 269.8 0 693.4 38.3 308.4 0 577.8 -38.3 269.8 0 577.7 77 501 0 269.6 38.6 269.8 38.3 231.2 -38.3 423.8 77 385.2 115.6 423.8 462.3 192.6 77 0 385.2 -38.4 847.8 0 308.2 38.4 847.6 0 423.8 38.6zm16220.1 38.6l308.2 -38.6 616.4 -38.6 808.9 0 231.2 -38.4 501 38.4 616.4 -38.4 3660.1 0 115.6 -423.8 77 -346.8 38.6 -655 115.6 -578 38.4 -269.6 77.2 -231.2 77 -269.8 0 -500.7 154.2 -847.6 38.3 -308.2 77.3 -423.8 38.3 -154.2 38.7 -308.2 -269.9 -115.6 -1078.7 38.6 -847.6 -38.6 -539.4 -38.6 -2273.1 0 -539.4 -77 -154 -153.9 0 -308.5 154 -1001.5 115.6 -693.6 77 -269.6 38.6 -385.4 77 -346.8 115.6 -385.2 154.2 -1078.7 115.6 -500.8 154 -423.8 346.8 0 501 -38.6 423.8 0 655 38.6 963.1 -38.6 346.6 0 578 -38.6 385.2 0 77.2 -77 77 -539.4 115.6 -616.4 76.9 -539.3 115.6 -308.2 0 -269.8 115.6 -578 77 -269.6 115.6 -539.4 77.3 -423.8 0 -308.2 76.9 -462.4 -231.2 -308.1 -308.1 -77 -1001.8 0 -732 77 -1348.6 -38.7 -693.3 0 77 -693.3 115.6 -385.4 -38.7 -308.2 77.3 -269.6 115.6 -539.4 77 -539.4 115.6 -732.2 0 -308.1 115.6 -231.2 0 -539.4 38.3 -269.6 115.6 -462.4 924.8 -38.6 2504.4 0 462.1 -38.4 1618.2 0 385.4 -38.6 115.6 -500.8 38.4 -231.2 154.2 -539.4 0 -308.1 115.6 -578 38.3 -231.2 38.7 -269.6 115.6 -269.8 0 -231.2 76.9 -963.2 0 -231.2 115.6 -423.8 -192.5 -269.5 -346.8 -38.7 -385.2 -38.3 -346.8 38.3 -847.6 0 -1117.4 38.7 -308.2 -38.7 -886.1 -38.3 -2889.5 38.3 -847.6 38.7 -385.2 0 -308.4 -38.7 -269.6 0 -462.4 38.7 -269.6 -38.7 -231.2 38.7 -654.9 0 -308.2 231.2 -38.6 231.2 -115.6 230.9 -115.6 462.4 77.2 269.8 -38.6 231.2 -38.6 500.8 -38.4 231.2 -77.2 231.2 -38.4 500.8 -77.2 269.5 38.6 231.2 -115.6 269.8 0 269.6 -115.6 231.2 -77 539.4 -154.2 501 -38.4 269.6 38.4 231.2 -38.4 269.6 -77.2 308.4 -154 230.9 -38.6 809.2 -115.6 269.6 -38.4 1078.8 -154.2 578 -115.6 539.4 38.6 231.2 -77.2 269.5 -115.4 308.5 -231.2 1155.7 -154.2 231.2 0 269.6 -38.6 269.8 -38.4 308.2 -115.6 269.6 -76.9 577.9 -154.3 539.4 0 578 -154.2 809 -77 269.8 -115.6 577.8 -38.3 269.8 -115.6 269.5 -115.6 501.1 38.4 231.1 -154 462.2 0 192.6 -77 501 -77.2 308.2 0 269.6 -77 616.6 -154.2 308.2 -77 500.7 -38.6 539.4 -38.4 269.8 -77 308.2 0 269.6 -77.2 269.8 0 346.8 -115.6 308.2 -38.4 616.4 -154.2 577.9 -77 616.4 -77 578 -77.2 346.6 -115.6 346.8 115.6 346.8 346.8 77 2041.9 0 269.8 38.6 1001.6 0 732.2 38.6zm13946.8 38.4l308.1 -38.4 578 -38.6 346.6 -38.6 385.4 38.6 115.6 -346.8 115.6 -269.6 38.4 -462.4 38.6 -269.8 0 -231 38.6 -269.8 38.4 -500.8 0 -231.2 77.2 -269.8 -38.6 -230.9 115.6 -539.4 0 -308.4 77 -231 38.6 -308.4 154 -809 77.2 -308.2 0 -809.2 154 -308.1 77.2 -539.4 0 -231.2 77 -539.4 192.6 -500.8 0 -655 115.6 -809.2 38.6 -308.1 115.6 -539.4 77 -231.2 38.3 -154 269.8 38.6 154.3 154 153.9 308.2 77 308.2 154.2 308.4 77 385.2 115.6 539.3 77 192.6 38.6 539.4 154.2 501 77 500.8 77 269.6 154.2 462.4 38.4 269.8 231.2 693.3 0 462.4 154.2 385.2 115.6 423.8 38.4 269.8 115.6 231.2 0 269.6 115.6 269.8 77.2 500.8 77 115.5 115.6 308.2 0 308.2 231.2 578 115.6 423.8 77 192.6 115.6 462.4 77 192.6 346.8 346.8 231.2 38.6 346.8 -38.6 308.1 0 423.8 -38.6 500.8 0 1001.8 -115.6 808.9 -115.6 501 0 423.8 -77 192.6 -38.4 115.6 -501 -269.8 -732 -77 -346.8 -38.6 -269.6 -38.4 -462.4 -269.8 -654.9 -77 -539.4 -423.8 -1387 -76.9 -500.7 -192.9 -578 0 -231.2 -153.9 -500.8 -77 -308.2 -115.6 -269.8 -77.3 -539.4 -76.9 -231.2 -115.6 -500.8 -115.6 -231.2 -77 -500.7 -38.6 -308.5 -154 -230.9 -77.2 -501 0 -346.8 -192.6 -577.8 -115.6 -308.2 0 -346.8 269.8 -38.6 539.4 -269.6 770.6 -501 539.3 -577.7 192.6 -192.6 423.8 -501 115.6 -231.2 308.2 -500.8 154.2 -346.8 115.6 -269.6 346.6 -501 192.8 -462.1 115.4 -269.8 77.2 -231.2 77 -269.6 154.2 -462.4 115.6 -385.2 77 -616.6 115.6 -616.4 0 -269.5 -38.6 -578 38.6 -269.8 115.6 -539.4 0 -308.2 -115.6 -732 0 -269.8 -77.3 -732 -115.3 -616.3 -269.8 -539.4 -269.6 -462.4 -154.2 -192.6 -192.6 -231.2 -154.2 -154 -462.4 -269.8 -192.6 -115.6 -231.2 -115.6 -346.6 -231.2 -269.8 -77 -346.8 -153.9 -423.8 -192.9 -308.1 -77 -616.4 0 -423.8 -76.9 -578 -38.7 -500.8 -76.9 -346.8 0 -578 -77 -308.1 -77.3 -385.2 38.7 -269.8 38.6 -1656.6 0 -2311.7 -38.6 -539.4 0 -385.2 76.9 -269.8 308.2 -153.9 192.9 38.3 423.7 -153.9 308.2 0 308.2 -38.7 269.6 -38.6 308.4 -153.9 1078.8 -115.6 616.3 -115.6 462.4 -77 269.6 0 231.2 -38.6 500.8 0 231.2 -38.7 231.2 -115.6 539.4 -115.6 616.3 -115.3 539.4 -38.6 231.2 -38.6 539.4 -154 462.4 -38.6 231.2 0 269.6 -38.6 231.2 -77 500.7 -38.6 269.9 -38.4 231.2 0 269.5 -192.6 809.2 0 308.2 -77.2 539.4 -77 500.8 -38.6 231.2 -77 423.8 -77 269.8 0 231.2 -115.6 230.9 -77 269.8 -38.6 462.4 38.6 231.2 -77.2 231 -192.6 269.8 0 346.8 -38.6 308.2 -38.4 269.6 -154.2 539.3 0 308.2 -38.4 578 -77.2 385.4 0 346.6 -192.6 693.6 0 578 -153.9 308.2 38.3 308.2 -38.3 269.5 -77.3 308.2 -38.3 539.4 -115.6 308.4 38.3 269.6 -115.6 308.2 0 269.8 -115.6 539.4 -38.3 269.6 0 231.2 -115.6 269.8 0 269.5 -77 231.2 0 269.6 -38.6 424 -38.7 385.2 -115.6 385.2 0 346.8 77.3 231.2 346.5 77 1194.4 77.2 501 0 1387 38.4zm5008.4 -15873.4l-654.8 -77 38.4 -308.2 -38.4 -269.8 38.4 -269.5 115.6 -616.4 77 -346.8 -38.4 -346.8 115.6 -346.8 77 -577.8 0 -269.8 115.6 -616.3 77 -308.2 38.6 -501 38.4 -577.8 77.2 -616.6 115.6 -269.6 115.6 -423.8 346.6 -115.6 924.8 38.6 847.5 115.4 346.8 192.8 269.6 269.6 192.6 346.8 115.6 809 38.6 847.8 -38.6 616.3 -115.6 308.2 0 308.2 -269.6 539.4 -38.6 231.2 -77 308.2 -192.6 501 -269.8 230.9 -153.9 231.2 -269.9 308.2 -269.5 154.2 -385.4 231.2 -231.2 154 -462.2 115.6 -616.6 0zm12945.5 15796.4l808.9 0 231.2 -38.6 578 38.6 346.8 0 231 -38.6 308.4 38.6 1386.9 0 192.6 -809.2 115.6 -693.4 115.6 -539.4 154 -578 77.2 -269.5 115.6 -578 77 -539.4 0 -231.2 77 -269.6 115.6 -385.4 38.6 -269.6 154 -539.4 154.2 -578 115.6 -539.3 115.6 -500.8 -38.6 -231.2 77 -231.2 77.2 -462.4 77 -385.2 115.6 -423.8 154 -500.7 0 -269.8 77.2 -385.2 192.6 -192.8 115.6 -192.6 76.9 -308.2 154.3 -192.6 153.9 -462.4 269.8 -462.4 115.6 -231 115.6 -192.8 231 -231.2 231.2 -500.7 308.2 -462.4 308.4 -693.4 231 -385.4 231.2 -500.8 154.2 -269.6 154 -231.2 385.4 -501 38.6 -231.2 192.6 -230.9 77 -192.9 269.8 -462.1 77 -231.2 115.6 -269.8 192.5 -500.8 385.2 -655 77.2 -231.2 154 -231.2 38.6 -231.2 308.2 -462.1 231.2 -539.4 231.2 -231.2 346.8 -732 77 -231.2 154 -231.2 77.2 -269.8 308.2 -423.8 153.9 -462.1 154.3 -192.9 231.2 -462.1 38.3 -269.8 154.2 -231.2 231.2 -462.2 77 -231.2 308.2 -423.8 77.2 -192.8 115.6 -500.8 0 -500.7 -424 -231.2 -770.3 38.6 -423.8 -77.3 -1001.8 0 -616.4 38.7 -578 -77 -1271.3 77 -269.8 153.9 -385.2 501 -231.2 385.2 -115.6 231.2 -192.6 500.8 -231.2 539.4 -346.8 770.6 -77 269.8 -77 231.2 -308.4 500.7 -38.4 269.8 -154.2 231 -231.2 501 -385.1 924.6 -231.2 423.8 -192.6 462.4 -308.2 462.4 -38.6 231.2 -154.2 269.5 -231 462.4 -77.2 192.6 -77 231.2 -115.6 192.6 -154 -38.6 -38.6 -577.8 -154.2 -1001.8 -77 -462.4 0 -346.5 -115.6 -385.4 -38.6 -500.8 38.6 -385.4 -154 -385.2 -77.2 -269.8 -115.6 -539.4 38.6 -230.9 -77 -1078.8 -154.2 -308.4 0 -385.2 -115.6 -308.2 0 -886.2 -115.6 -385.1 -423.8 -462.4 -577.7 0 -1040.4 -38.7 -423.8 77.3 -269.6 -38.6 -385.4 38.6 -539.4 -38.6 -1001.7 38.6 -308.2 38.3 -192.6 77 -115.6 308.5 0 385.1 38.6 500.8 77 539.4 38.6 231.2 38.4 501 154.2 1155.7 154.2 539.4 0 269.6 77 578 115.6 269.8 -38.6 462.2 77 308.2 77.2 963.4 38.4 308.2 192.8 577.7 115.3 616.6 0 269.6 77.3 500.8 153.9 501 115.6 462.4 38.7 269.5 115.6 693.6 115.6 577.8 -38.7 231.2 77 539.4 115.6 269.8 0 308.2 115.6 577.7 77.2 578 77 269.8 -38.6 308.2 38.6 346.6 115.6 385.4 38.4 462.4 -192.6 655 -38.4 462.1 -154.2 423.8 0 269.8 -38.6 231.2 -153.9 500.8 -115.6 616.4 0 385.4 -115.6 308.2 -115.6 539.4 -77 578 -115.6 269.5 -77.3 500.8 -38.3 423.8 -192.6 847.8 -115.6 346.6 0 423.7 -77.2 231.2 -38.4 269.8 -38.6 231.2 -77 269.6 38.4 231.2 -77 500.8 -77 462.4 38.6 500.8 423.8 231.2 577.7 0 269.9 38.6z"/>
 </g>
</svg>

