<?xml version="1.0" encoding="UTF-8"?>
<!DOCTYPE svg PUBLIC "-//W3C//DTD SVG 1.1//EN" "http://www.w3.org/Graphics/SVG/1.1/DTD/svg11.dtd">
<!-- Creator: CorelDRAW 2020 (64 Bit) -->
<svg xmlns="http://www.w3.org/2000/svg" xml:space="preserve" width="297mm" height="210mm" version="1.1" style="shape-rendering:geometricPrecision; text-rendering:geometricPrecision; image-rendering:optimizeQuality; fill-rule:evenodd; clip-rule:evenodd"
viewBox="0 0 297000 210000"
 xmlns:xlink="http://www.w3.org/1999/xlink"
 xmlns:xodm="http://www.corel.com/coreldraw/odm/2003">
 <defs>
  <style type="text/css">
   <![CDATA[
    .fil0 {fill:#4E342E}
   ]]>
  </style>
 </defs>
 <g id="Layer_x0020_1">
  <metadata id="CorelCorpID_0Corel-Layer"/>
  <path class="fil0" d="M260741.6 52886.3l-188617.4 0c-3323,0 -6035.7,2772.1 -6035.7,6168.7l0 1176.5c0,3397.4 2711.8,6168.7 6035.7,6168.7l45453.1 0c1900.9,0 3450.7,1584.2 3450.7,3526.9l0 4595.9c0,1942.7 -1549.8,3526.9 -3450.7,3526.9l-87943.3 0c-3087,0 -5604.7,2573.2 -5604.7,5728.4l0 193.3c0,3155.3 2517.7,5728.5 5604.7,5728.5l86651 0c2612.4,0 4743,2177.7 4743,4847.8l0 3119.5c0,2670.1 -2130.6,4847.8 -4743,4847.8l-47806.5 -0.4c-5459,0 -9912.3,4551.5 -9912.3,10131.5l0 4900.7c0,5580 4453.3,10131.5 9912.3,10131.5l66258.6 0c3560.8,0 6465.5,2969 6465.5,6609l0 4257.4c0,3640 -2904.7,6609 -6465.5,6609l-90335.6 -0.4c-3561.7,0 -6466.4,2969 -6466.4,6609l0 295.4c0,3615.9 2904.7,6609.1 6466.4,6609.1l193005.5 0c8733.1,0 13236.6,-7542.1 15855.6,-15855.5l23334.6 -74069.7c2618.9,-8313.5 -7147.1,-15855.5 -15855.6,-15855.5zm-207670.9 13279.7c4056.6,0 7345.3,-3288.7 7345.3,-7345.3 0,-4056.5 -3288.7,-7345.2 -7345.3,-7345.2 -4056.5,0 -7345.2,3288.7 -7345.2,7345.2 0,4056.6 3288.7,7345.3 7345.2,7345.3zm-26280.7 92501c3772.6,0 6830.5,-3058 6830.5,-6830.5 0,-3772.6 -3057.9,-6830.5 -6830.5,-6830.5 -3772.6,0 -6830.5,3057.9 -6830.5,6830.5 0,3772.5 3057.9,6830.5 6830.5,6830.5zm129625.7 -16298.9l8667.5 0 758.2 -108.3 324.9 -1300.3 108.4 -866.5 108.7 -975.3 325 -866.5 108.3 -758.2 216.6 -650.4 108.3 -758.2 0 -867 433.3 -649.8 0 -1516.9 324.9 -1625.2 0 -1083.2 325 -758.6 108.7 -758.2 325 -1300.3 216.6 -758.2 216.7 -1300.2 324.9 -974.8 324.9 -1516.9 0 -649.9 108.4 -758.7 216.6 -649.9 108.3 -758.2 108.8 -650.3 108.3 -1408.1 216.6 -542 108.3 -1408.1 325 -867 108.3 -758.2 0 -216.7 1625.2 108.4 2383.4 0 2058.4 108.3 3033.7 -216.7 1516.5 -217 1408.5 -108.3 1300.3 -216.7 1733.4 -541.6 1408.2 -649.8 1083.6 -325.4 1516.8 -758.2 541.6 -649.9 1408.5 -1083.6 541.6 -758.3 758.7 -1083.6 974.8 -866.5 758.2 -1300.2 650.4 -649.9 974.8 -1625.2 758.7 -1300.2 541.6 -1191.5 866.5 -2058.5 542 -1516.8 324.9 -867 325 -1516.4 216.6 -650.3 108.3 -649.9 325 -758.3 108.3 -866.9 325.4 -758.2 216.6 -1516.9 216.7 -2383.4 108.3 -758.6 216.6 -1191.5 108.3 -1191.9 -108.3 -1192 0 -758.2 -108.3 -1625.1 108.3 -1083.2 -324.9 -1191.9 -108.4 -758.2 -108.3 -1192 -433.7 -1191.9 -216.6 -758.2 -649.9 -1408.5 -325 -866.6 -650.3 -758.6 -649.9 -866.5 -433.2 -541.6 -975.3 -867 -1408.1 -758.2 -758.7 -325 -758.2 -542 -758.2 -216.6 -1733.5 -325 -2275.5 -324.9 -1408.1 -216.6 -867 0 -1625.2 -216.7 -1516.4 0 -1625.2 108.4 -758.6 -108.4 -7258.5 0 -650.4 108.4 -1408.1 -108.4 -1408.5 108.4 -5633.8 0 -866.5 433.2 -433.7 1408.6 -108.3 866.5 -325 1516.9 -108.3 866.5 -108.3 758.6 -433.3 1733.5 -216.6 758.2 0 649.9 -108.3 758.7 -217.1 758.2 0 867 -216.6 758.2 -108.4 1300.2 -324.9 974.9 -324.9 1516.8 -216.7 866.6 -108.3 1950.1 -108.3 650.3 -325 1408.6 108.4 433.2 -108.4 1191.5 -433.7 1733.5 -108.3 650.3 -108.3 1408.2 -324.9 758.6 -216.7 758.2 -108.3 1408.6 0 1300.2 -324.9 1408.1 -325 1733.5 -217.1 1625.2 -108.3 866.5 -324.9 1516.9 -108.3 650.3 -216.7 758.2 -108.3 649.9 -216.6 758.7 -108.3 1516.4 -108.4 867 -324.9 758.2 -325.4 2275.1 -108.3 1625.1 -325 650.4 0 758.2 -216.6 649.9 0 1191.9 -541.6 1083.6 0 541.6 -108.3 1300.2 -108.3 649.9 -433.7 1408.6 -216.6 649.9 -108.4 758.2 -108.3 1408.5 -324.9 649.9 -433.3 2492.2 -108.3 649.9 -108.3 758.2 -325 1300.2 -108.3 758.2 -325.4 1408.6 -324.9 1625.2 -325 1516.8 0 649.9 -324.9 1516.9 108.3 758.2 -324.9 650.3 0 2058.5 649.9 541.6 1950.1 -108.4 758.2 108.4 1733.5 108.3zm17009.6 -41711.4l108.3 -974.8 324.9 -1516.9 0 -974.8 542.1 -2708.8 216.6 -974.9 0 -866.9 108.3 -1299.8 325 -1733.5 216.6 -1083.6 324.9 -2166.8 325 -1300.2 217.1 -758.2 216.6 -1841.9 108.3 -1083.1 216.6 -542 541.6 -1299.8 758.7 -217.1 2491.7 -108.3 2924.9 108.3 975.3 217.1 1191.5 866.5 650.3 975.3 433.3 1299.8 0 1841.8 -216.6 2817.1 -433.3 3033.3 -433.7 1841.8 -433.3 975.3 -216.6 974.8 -541.6 1516.9 -433.2 649.9 -758.7 1191.9 -1191.5 1083.2 -1733.5 1300.2 -758.6 324.9 -2058.5 216.7 -1191.4 216.6 -2817.1 0zm47128.5 41819.7l758.2 -108.3 542 0 758.2 -108.3 3358.7 0 1191.5 -433.3 1733.5 -216.6 1083.6 -216.7 1516.8 -433.7 1083.2 -758.2 1191.9 -324.9 1408.1 -650.4 650.3 -433.2 974.9 -866.6 1516.8 -1191.9 1516.9 -1841.8 758.2 -1299.8 542 -650.3 541.6 -758.2 108.3 -650.4 866.6 -866.5 542 -1083.6 758.2 -2166.8 758.2 -1516.4 433.7 -1516.9 108.3 -650.3 649.9 -1408.1 108.3 -1191.9 216.7 -649.9 758.6 -1408.6 325 -758.2 216.6 -1300.2 108.3 -1408.6 649.9 -2275 108.3 -1083.6 325 -866.6 217.1 -866.5 216.6 -2492.1 216.6 -1625.2 433.3 -2058.5 0 -758.2 541.6 -1733.5 0 -3033.3 108.3 -758.6 216.6 -1841.8 0 -758.2 325.4 -1733.5 0 -649.9 108.3 -758.7 -216.6 -758.2 108.3 -758.7 -108.3 -649.9 -325.4 -1516.8 325.4 -649.9 -108.8 -1408.6 -216.6 -2166.7 108.3 -758.2 -541.6 -1516.9 0 -758.2 -324.9 -1841.8 -433.3 -758.7 -650.3 -1625.2 -433.3 -1516.4 -541.6 -975.3 -433.2 -541.5 -867 -1300.3 -1625.2 -2166.7 -649.9 -541.6 -758.2 -542 -1083.6 -649.9 -433.2 -216.7 -541.6 -324.9 -1841.8 -541.6 -650.4 -217.1 -216.6 0 -1516.9 -433.2 -866.5 -325 -758.2 0 -1625.2 -216.6 -975.3 -108.3 -866.5 -108.3 -1733.5 0 -649.9 108.3 -1191.9 -108.3 -2708.4 0 -2167.2 108.3 -2383.3 -108.3 -866.6 0 -1733.5 216.6 -758.6 -108.3 -1299.8 -108.3 -758.7 0 -1083.1 324.9 -325 1191.9 -216.6 325 -325.4 1083.1 -216.6 758.7 -108.3 1299.8 -108.4 758.6 -324.9 649.9 -216.6 1300.3 -216.7 1516.8 -324.9 1408.1 -108.3 758.7 0 649.9 -217.1 758.2 -541.6 1950.1 -216.6 1300.2 -216.7 2275.1 -108.3 867 0 1516.4 -433.2 1300.3 -216.7 1300.2 0 649.9 -325.4 1300.2 -108.3 758.2 -216.6 1300.3 -108.3 758.2 0 650.3 -108.3 758.2 -216.7 758.2 -324.9 758.7 -541.6 3033.3 -217.1 650.3 -324.9 1516.9 -216.7 649.9 -216.6 758.2 0 2166.7 -433.2 1300.3 -108.4 649.9 -324.9 1300.2 -217.1 758.2 -216.6 1408.6 -108.3 758.6 -325 1516.4 -108.3 867 -324.9 1516.9 0 2383.4 -433.3 758.2 -108.3 650.3 -108.3 1408.1 -217.1 867 -325 1516.4 0 867 -216.6 1083.1 -433.3 867 -216.6 1191.9 -108.3 866.6 -216.6 1516.8 0 866.6 -216.7 866.9 -217 1083.2 -325 1516.9 -108.3 649.8 -216.6 1516.9 -541.6 1300.2 -108.3 974.9 0 2492.1 866.5 216.7 1516.9 216.6 3250.3 0 758.2 -108.3 867 0 649.9 108.3 1516.9 216.6 974.8 0 867 108.4 1299.8 -108.4 1625.1 216.7 1408.6 -108.3 1408.5 108.3 2491.8 108.3zm-433.3 -14734.5l-1516.9 -433.3 216.7 -974.8 324.9 -1841.8 108.3 -1625.2 216.7 -1625.2 433.7 -1516.9 108.3 -758.2 433.2 -1950.1 325 -1625.2 0 -649.9 541.6 -1516.9 108.3 -649.8 0 -1408.6 433.7 -2817.1 216.6 -758.2 -108.3 -649.9 216.6 -758.7 325 -1516.4 0 -650.3 324.9 -1516.9 216.7 -649.9 324.9 -1516.8 0 -758.3 216.6 -1733.5 325.4 -1516.8 0 -649.9 325 -649.9 108.3 -867 0 -758.2 216.6 -758.6 108.3 -649.9 216.7 -2383.4 216.6 -1516.9 216.6 -1408.5 433.7 -1516.9 325 -1624.8 216.6 -758.6 0 -649.9 325 -758.2 324.9 -867 975.3 -108.3 1408.1 108.3 1733.5 216.7 1841.8 541.5 542 433.7 649.9 541.6 758.3 1408.6 650.3 1841.8 108.3 866.5 216.6 2925.4 -108.3 3141.6 108.3 2275.1 -216.6 2275.5 -108.3 649.9 -325.4 2275.1 0 1516.9 -541.6 1516.8 -216.6 866.6 -108.3 758.6 -216.7 1624.7 -216.6 1516.9 -216.6 1408.6 -108.3 758.2 -325.4 1300.2 -216.7 649.9 -216.6 542 -108.3 649.9 -433.3 1408.6 -324.9 1516.4 -325 1191.9 -650.3 2058.5 -541.6 1408.5 -541.6 1083.2 -433.7 1083.6 -433.2 758.2 -325 650.3 -758.2 866.5 -867 867 -541.5 433.3 -1192 649.9 -866.5 433.2 -1083.6 325 -3249.9 0z"/>
 </g>
</svg>
