<?xml version="1.0" encoding="UTF-8"?>
<!DOCTYPE svg PUBLIC "-//W3C//DTD SVG 1.1//EN" "http://www.w3.org/Graphics/SVG/1.1/DTD/svg11.dtd">
<!-- Creator: CorelDRAW 2020 (64 Bit) -->
<svg xmlns="http://www.w3.org/2000/svg" xml:space="preserve" width="1000mm" height="1000mm" version="1.1" style="shape-rendering:geometricPrecision; text-rendering:geometricPrecision; image-rendering:optimizeQuality; fill-rule:evenodd; clip-rule:evenodd"
viewBox="0 0 1000000 1000000"
 xmlns:xlink="http://www.w3.org/1999/xlink"
 xmlns:xodm="http://www.corel.com/coreldraw/odm/2003">
 <defs>
  <style type="text/css">
   <![CDATA[
    .fil0 {fill:black}
   ]]>
  </style>
 </defs>
 <g id="Camada_x0020_1">
  <metadata id="CorelCorpID_0Corel-Layer"/>
  <path class="fil0" d="M736939 381545.9l0 88863.6c0,65437.5 -53048.6,118484.9 -118484.7,118484.9l-59242.5 0 0 118485 -296212 0 0 -59242.6 27595.6 -63075.4c9497.8,2497.2 19512.7,3833 29906.3,3833 53557.1,0 100241.6,-36449.8 113231.1,-88407.9l-57473.6 -14368.4c-6396.2,25585.3 -29384.7,43534.2 -55757.5,43534.2 -1876.6,0 -3727.8,-88.6 -5550.9,-261.3 -21563.5,-2042.7 -39149.2,-15867.5 -47203.2,-34360 -2403.5,-5518.3 -3958.3,-11452.7 -4516.5,-17613.6 -564,-6226 -110.6,-12683.7 1513,-19177.9 0,0 0,-0.3 0,0l18952.2 -75808.9c13186.2,-52745.7 60578.2,-89748.3 114947.2,-89748.3l160568.3 0 59242.5 88863.6 118484.7 0zm-207348.3 59242.6c16359.4,0 29621.1,-13262.1 29621.1,-29621.3 0,-16359.2 -13261.7,-29621.3 -29621.1,-29621.3 -16359.6,0 -29621.3,13262.1 -29621.3,29621.3 0,16359.2 13261.7,29621.3 29621.3,29621.3z"/>
 </g>
</svg>
