<?xml version="1.0" encoding="UTF-8"?>
<!DOCTYPE svg PUBLIC "-//W3C//DTD SVG 1.1//EN" "http://www.w3.org/Graphics/SVG/1.1/DTD/svg11.dtd">
<!-- Creator: CorelDRAW 2020 (64 Bit) -->
<svg xmlns="http://www.w3.org/2000/svg" xml:space="preserve" width="1000mm" height="1000mm" version="1.1" style="shape-rendering:geometricPrecision; text-rendering:geometricPrecision; image-rendering:optimizeQuality; fill-rule:evenodd; clip-rule:evenodd"
viewBox="0 0 1000000 1000000"
 xmlns:xlink="http://www.w3.org/1999/xlink"
 xmlns:xodm="http://www.corel.com/coreldraw/odm/2003">
 <defs>
  <style type="text/css">
   <![CDATA[
    .fil0 {fill:black}
   ]]>
  </style>
 </defs>
 <g id="Camada_x0020_1">
  <metadata id="CorelCorpID_0Corel-Layer"/>
  <path class="fil0" d="M307810.2 307871.6l384318.2 0 0 384318.2 -384318.2 0 0 -384318.2zm137256.6 82353.9c0,22741.6 -18435.5,41177 -41177.1,41177 -22741.3,0 -41176.8,-18435.4 -41176.8,-41177 0,-22741.4 18435.5,-41176.9 41176.8,-41176.9 22741.6,0 41177.1,18435.5 41177.1,41176.9zm150982.1 41177c22740.5,0 41176.8,-18435.4 41176.8,-41177 0,-22741.4 -18436.3,-41176.9 -41176.8,-41176.9 -22740.8,0 -41177.1,18435.5 -41177.1,41176.9 0,22741.6 18436.3,41177 41177.1,41177zm-150982.1 178433.4c0,22740.6 -18435.5,41176.9 -41177.1,41176.9 -22741.3,0 -41176.8,-18436.3 -41176.8,-41176.9 0,-22740.7 18435.5,-41177 41176.8,-41177 22741.6,0 41177.1,18436.3 41177.1,41177zm150982.1 41176.9c22740.5,0 41176.8,-18436.3 41176.8,-41176.9 0,-22740.7 -18436.3,-41177 -41176.8,-41177 -22740.8,0 -41177.1,18436.3 -41177.1,41177 0,22740.6 18436.3,41176.9 41177.1,41176.9zm-150982.1 -150982.1c0,22741.4 -18435.5,41177 -41177.1,41177 -22741.3,0 -41176.8,-18435.6 -41176.8,-41177 0,-22741.4 18435.5,-41177 41176.8,-41177 22741.6,0 41177.1,18435.6 41177.1,41177zm150982.1 41177c22740.5,0 41176.8,-18435.6 41176.8,-41177 0,-22741.4 -18436.3,-41177 -41176.8,-41177 -22740.8,0 -41177.1,18435.6 -41177.1,41177 0,22741.4 18436.3,41177 41177.1,41177z"/>
 </g>
</svg>
