<?xml version="1.0" encoding="UTF-8"?>
<!DOCTYPE svg PUBLIC "-//W3C//DTD SVG 1.1//EN" "http://www.w3.org/Graphics/SVG/1.1/DTD/svg11.dtd">
<!-- Creator: CorelDRAW 2020 (64 Bit) -->
<svg xmlns="http://www.w3.org/2000/svg" xml:space="preserve" width="1000mm" height="1000mm" version="1.1" style="shape-rendering:geometricPrecision; text-rendering:geometricPrecision; image-rendering:optimizeQuality; fill-rule:evenodd; clip-rule:evenodd"
viewBox="0 0 1000000 1000000"
 xmlns:xlink="http://www.w3.org/1999/xlink"
 xmlns:xodm="http://www.corel.com/coreldraw/odm/2003">
 <defs>
  <style type="text/css">
   <![CDATA[
    .fil0 {fill:black}
   ]]>
  </style>
 </defs>
 <g id="Camada_x0020_1">
  <metadata id="CorelCorpID_0Corel-Layer"/>
  <path class="fil0" d="M760927.9 500030.7c0,144124.2 -116834.4,260958.6 -260958.6,260958.6 -144123.7,0 -260958.6,-116834.4 -260958.6,-260958.6 0,-144123.7 116834.9,-260958.6 260958.6,-260958.6 144124.2,0 260958.6,116834.9 260958.6,260958.6zm-293578.5 -81549.5c0,27023.1 -21906.5,48929.6 -48929.6,48929.6 -27023.5,0 -48929.9,-21906.5 -48929.9,-48929.6 0,-27023.5 21906.4,-48929.9 48929.9,-48929.9 27023.1,0 48929.6,21906.4 48929.6,48929.9zm114169.4 48929.6c27022.5,0 48929.9,-21906.5 48929.9,-48929.6 0,-27023.5 -21907.4,-48929.9 -48929.9,-48929.9 -27023.1,0 -48929.6,21906.4 -48929.6,48929.9 0,27023.1 21906.5,48929.6 48929.6,48929.6zm-212028.9 65239.8c0,72060.4 58417.6,130479.2 130479.4,130479.2 72060.6,0 130479.4,-58418.8 130479.4,-130479.2l-260958.8 0z"/>
 </g>
</svg>
