<?xml version="1.0" encoding="UTF-8"?>
<!DOCTYPE svg PUBLIC "-//W3C//DTD SVG 1.1//EN" "http://www.w3.org/Graphics/SVG/1.1/DTD/svg11.dtd">
<!-- Creator: CorelDRAW 2020 (64 Bit) -->
<svg xmlns="http://www.w3.org/2000/svg" xml:space="preserve" width="1000mm" height="1000mm" version="1.1" style="shape-rendering:geometricPrecision; text-rendering:geometricPrecision; image-rendering:optimizeQuality; fill-rule:evenodd; clip-rule:evenodd"
viewBox="0 0 1000000 1000000"
 xmlns:xlink="http://www.w3.org/1999/xlink"
 xmlns:xodm="http://www.corel.com/coreldraw/odm/2003">
 <defs>
  <style type="text/css">
   <![CDATA[
    .fil0 {fill:black}
   ]]>
  </style>
 </defs>
 <g id="Camada_x0020_1">
  <metadata id="CorelCorpID_0Corel-Layer"/>
  <path class="fil0" d="M800439 406133.9c0,114087.2 -92484.6,206573 -206572.9,206573l-131455.6 0 0 75117.3 -75117.4 0 0 75117.7 -37558.8 37558.5 -150234.7 0 0 -150234.7 193934.8 -193935c-4011.7,-16069.8 -6141.3,-32884.6 -6141.3,-50196.8 0,-114087.2 92485.8,-206572.9 206573,-206572.9 114088.3,0 206572.9,92485.7 206572.9,206572.9zm-112676.2 -56338.2c0,20742.9 -16815,37558.8 -37558.5,37558.8 -20743.8,0 -37558.8,-16815.9 -37558.8,-37558.8 0,-20742.9 16815,-37558.5 37558.8,-37558.5 20743.5,0 37558.5,16815.6 37558.5,37558.5z"/>
 </g>
</svg>
