<?xml version="1.0" encoding="UTF-8"?>
<!DOCTYPE svg PUBLIC "-//W3C//DTD SVG 1.1//EN" "http://www.w3.org/Graphics/SVG/1.1/DTD/svg11.dtd">
<!-- Creator: CorelDRAW 2020 (64 Bit) -->
<svg xmlns="http://www.w3.org/2000/svg" xml:space="preserve" width="1000mm" height="1000mm" version="1.1" style="shape-rendering:geometricPrecision; text-rendering:geometricPrecision; image-rendering:optimizeQuality; fill-rule:evenodd; clip-rule:evenodd"
viewBox="0 0 1000000 1000000"
 xmlns:xlink="http://www.w3.org/1999/xlink"
 xmlns:xodm="http://www.corel.com/coreldraw/odm/2003">
 <defs>
  <style type="text/css">
   <![CDATA[
    .fil0 {fill:black}
   ]]>
  </style>
 </defs>
 <g id="Camada_x0020_1">
  <metadata id="CorelCorpID_0Corel-Layer"/>
  <path class="fil0" d="M359025 453049.3c0,-77841.6 63102.9,-140944.3 140944.3,-140944.3 77841.2,0 140944.3,63102.7 140944.3,140944.3l0 234907.1 -46981.4 0 -46981.5 -46981.4 -46981.4 46981.4 -46981.4 -46981.4 -46981.5 46981.4 -46981.4 0 0 -234907.1zm117453.5 0c0,12973.5 -10517.1,23490.6 -23490.6,23490.6 -12973.4,0 -23490.8,-10517.1 -23490.8,-23490.6 0,-12973.4 10517.4,-23490.8 23490.8,-23490.8 12973.5,0 23490.6,10517.4 23490.6,23490.8zm70472.2 23490.6c12974,0 23490.8,-10517.1 23490.8,-23490.6 0,-12973.4 -10516.8,-23490.8 -23490.8,-23490.8 -12973.5,0 -23490.6,10517.4 -23490.6,23490.8 0,12973.5 10517.1,23490.6 23490.6,23490.6z"/>
 </g>
</svg>
