<?xml version="1.0" encoding="UTF-8"?>
<!DOCTYPE svg PUBLIC "-//W3C//DTD SVG 1.1//EN" "http://www.w3.org/Graphics/SVG/1.1/DTD/svg11.dtd">
<!-- Creator: CorelDRAW 2020 (64 Bit) -->
<svg xmlns="http://www.w3.org/2000/svg" xml:space="preserve" width="1000mm" height="1000mm" version="1.1" style="shape-rendering:geometricPrecision; text-rendering:geometricPrecision; image-rendering:optimizeQuality; fill-rule:evenodd; clip-rule:evenodd"
viewBox="0 0 1000000 1000000"
 xmlns:xlink="http://www.w3.org/1999/xlink"
 xmlns:xodm="http://www.corel.com/coreldraw/odm/2003">
 <defs>
  <style type="text/css">
   <![CDATA[
    .fil0 {fill:black}
    .fil1 {fill:black;fill-rule:nonzero}
   ]]>
  </style>
 </defs>
 <g id="Camada_x0020_1">
  <metadata id="CorelCorpID_0Corel-Layer"/>
  <g id="_2560206447296">
   <path class="fil0" d="M560270 741233.8l60301 -60300.7 0 -120601.7 49956.1 -49954.8c45231.7,-45234.4 70645.3,-106585.3 70645.3,-170556.5l0 -80992.5 -80993 0c-63970,0 -125321.9,25412.3 -170556.2,70646.9l-49954.6 49954.5 -120601.7 0 -60300.7 60301 301503.8 301503.8zm15075.3 -271353.6c24976.7,0 45225.7,-20248 45225.7,-45225.5 0,-24977.6 -20249,-45225.7 -45225.7,-45225.7 -24977.5,0 -45225.5,20248.1 -45225.5,45225.7 0,24977.5 20248,45225.5 45225.5,45225.5z"/>
   <polygon class="fil1" points="407329.3,673570.3 326430.6,592670.7 258766.2,711083.6 288916.4,741233.8 "/>
  </g>
 </g>
</svg>
