<?xml version="1.0" encoding="UTF-8"?>
<!DOCTYPE svg PUBLIC "-//W3C//DTD SVG 1.1//EN" "http://www.w3.org/Graphics/SVG/1.1/DTD/svg11.dtd">
<!-- Creator: CorelDRAW 2020 (64 Bit) -->
<svg xmlns="http://www.w3.org/2000/svg" xml:space="preserve" width="1000mm" height="1000mm" version="1.1" style="shape-rendering:geometricPrecision; text-rendering:geometricPrecision; image-rendering:optimizeQuality; fill-rule:evenodd; clip-rule:evenodd"
viewBox="0 0 1000000 1000000"
 xmlns:xlink="http://www.w3.org/1999/xlink"
 xmlns:xodm="http://www.corel.com/coreldraw/odm/2003">
 <defs>
  <style type="text/css">
   <![CDATA[
    .fil0 {fill:black;fill-rule:nonzero}
   ]]>
  </style>
 </defs>
 <g id="Camada_x0020_1">
  <metadata id="CorelCorpID_0Corel-Layer"/>
  <path class="fil0" d="M499969.3 294105.4l-179270.1 179270.1c-17067.1,17067.1 -26655.2,40214.9 -26655.2,64351.6l0 2094.6c0,49104.4 39807.4,88912.3 88912.3,88912.3 17553.6,0 34714.3,-5196.9 49319.9,-14932.1l45170.1 -30114 -28958.3 96527.6 0 25740.5 102962.6 0 0 -25740.5 -28958.3 -96527.6 45169.9 30114c14605.2,9735.2 31766.5,14932.1 49318.9,14932.1 49105.6,0 88913.5,-39807.9 88913.5,-88912.3l0 -2094.6c0,-24136.7 -9588.3,-47284.5 -26654.5,-64351.6l-179270.8 -179270.1z"/>
 </g>
</svg>
