<?xml version="1.0" encoding="UTF-8"?>
<!DOCTYPE svg PUBLIC "-//W3C//DTD SVG 1.1//EN" "http://www.w3.org/Graphics/SVG/1.1/DTD/svg11.dtd">
<!-- Creator: CorelDRAW 2020 (64 Bit) -->
<svg xmlns="http://www.w3.org/2000/svg" xml:space="preserve" width="1000mm" height="1000mm" version="1.1" style="shape-rendering:geometricPrecision; text-rendering:geometricPrecision; image-rendering:optimizeQuality; fill-rule:evenodd; clip-rule:evenodd"
viewBox="0 0 1000000 1000000"
 xmlns:xlink="http://www.w3.org/1999/xlink"
 xmlns:xodm="http://www.corel.com/coreldraw/odm/2003">
 <defs>
  <style type="text/css">
   <![CDATA[
    .fil0 {fill:black}
   ]]>
  </style>
 </defs>
 <g id="Camada_x0020_1">
  <metadata id="CorelCorpID_0Corel-Layer"/>
  <path class="fil0" d="M569783 348767.7l-255983.4 0 0 255983.4 46542.4 0c0,25705.5 20837.7,46542.6 46542.4,46542.6 25704.8,0 46542.5,-20837.1 46542.5,-46542.6l93084.8 0c0,25705.5 20837,46542.6 46542.5,46542.6 25705.4,0 46542.4,-20837.1 46542.4,-46542.6l46542.4 0 0 -116356c0,-38556.9 -31255.6,-69813.7 -69813.7,-69813.7l-46542.3 0 0 -69813.7zm0 116356.1l0 46542.5 69813.6 0 0 -46542.5 -69813.6 0z"/>
 </g>
</svg>
