<?xml version="1.0" encoding="UTF-8"?>
<!DOCTYPE svg PUBLIC "-//W3C//DTD SVG 1.1//EN" "http://www.w3.org/Graphics/SVG/1.1/DTD/svg11.dtd">
<!-- Creator: CorelDRAW 2020 (64 Bit) -->
<svg xmlns="http://www.w3.org/2000/svg" xml:space="preserve" width="1000mm" height="1000mm" version="1.1" style="shape-rendering:geometricPrecision; text-rendering:geometricPrecision; image-rendering:optimizeQuality; fill-rule:evenodd; clip-rule:evenodd"
viewBox="0 0 1000000 1000000"
 xmlns:xlink="http://www.w3.org/1999/xlink"
 xmlns:xodm="http://www.corel.com/coreldraw/odm/2003">
 <defs>
  <style type="text/css">
   <![CDATA[
    .fil0 {fill:black}
    .fil1 {fill:black;fill-rule:nonzero}
   ]]>
  </style>
 </defs>
 <g id="Camada_x0020_1">
  <metadata id="CorelCorpID_0Corel-Layer"/>
  <g id="_2559923174096">
   <path class="fil0" d="M578379 369348l0 26136.4 113526.7 124878.8c11040.1,12143.5 17156,28143.3 17156,44554.1 0,36086.7 -29254.6,65796.1 -65341.4,65796.1 -36086.7,0 -65341.3,-29254.6 -65341.3,-65341.3l0 -21267.6c0,2739.1 -54.9,5472.8 -159.5,8199.3l-156499.1 0c-106.8,-2726.5 -160.8,-5460.2 -160.8,-8199.3l0 21267.6c0,36086.7 -29254.4,65341.3 -65341.3,65341.3 -36087.2,0 -65341.4,-29709.4 -65341.4,-65796.1 0,-16410.8 6117.1,-32410.6 17156.8,-44554.1l113525.9 -124878.8 0 -26136.4c0,-43304.5 35105.4,-78409.7 78409.7,-78409.7 43304.3,0 78409.7,35105.2 78409.7,78409.7zm-156819.4 130682.7l156819.4 0 0 -52273.1 -156819.4 0 0 52273.1z"/>
   <path class="fil1" d="M517137.1 691954.1c24592.9,-24591.9 42426.1,-54680.2 52305.7,-87377.1l-138947.8 0c9879.6,32696.9 27713.6,62785.2 52306.5,87377.1l17167.8 17169 17167.8 -17169z"/>
  </g>
 </g>
</svg>
