<?xml version="1.0" encoding="UTF-8"?>
<!DOCTYPE svg PUBLIC "-//W3C//DTD SVG 1.1//EN" "http://www.w3.org/Graphics/SVG/1.1/DTD/svg11.dtd">
<!-- Creator: CorelDRAW 2020 (64 Bit) -->
<svg xmlns="http://www.w3.org/2000/svg" xml:space="preserve" width="1000mm" height="1000mm" version="1.1" style="shape-rendering:geometricPrecision; text-rendering:geometricPrecision; image-rendering:optimizeQuality; fill-rule:evenodd; clip-rule:evenodd"
viewBox="0 0 1000000 1000000"
 xmlns:xlink="http://www.w3.org/1999/xlink"
 xmlns:xodm="http://www.corel.com/coreldraw/odm/2003">
 <defs>
  <style type="text/css">
   <![CDATA[
    .fil0 {fill:black;fill-rule:nonzero}
   ]]>
  </style>
 </defs>
 <g id="Camada_x0020_1">
  <metadata id="CorelCorpID_0Corel-Layer"/>
  <path class="fil0" d="M582519.4 362447.3c0,35942.9 -22971,66520.4 -55033.3,77852.6l0 222547.1c69135.5,-11598.3 123701.2,-66164 135299.5,-135299.5l-52749.5 0 0 -55033.6 110066.6 0 0 27516.8c0,121576.9 -98556.5,220133.4 -220133.4,220133.4 -121576.5,0 -220133.4,-98556.5 -220133.4,-220133.4l0 -27516.8 110066.6 0 0 55033.6 -52750.5 0c11598.7,69135.5 66164.6,123701.2 135300.5,135299.5l0 -222547.1c-32062.1,-11332.2 -55033.3,-41909.7 -55033.3,-77852.6 0,-45591.1 36959.2,-82550 82550.1,-82550 45590.9,0 82550.1,36958.9 82550.1,82550z"/>
 </g>
</svg>
