<?xml version="1.0" encoding="UTF-8"?>
<!DOCTYPE svg PUBLIC "-//W3C//DTD SVG 1.1//EN" "http://www.w3.org/Graphics/SVG/1.1/DTD/svg11.dtd">
<!-- Creator: CorelDRAW 2020 (64 Bit) -->
<svg xmlns="http://www.w3.org/2000/svg" xml:space="preserve" width="1000mm" height="1000mm" version="1.1" style="shape-rendering:geometricPrecision; text-rendering:geometricPrecision; image-rendering:optimizeQuality; fill-rule:evenodd; clip-rule:evenodd"
viewBox="0 0 1000000 1000000"
 xmlns:xlink="http://www.w3.org/1999/xlink"
 xmlns:xodm="http://www.corel.com/coreldraw/odm/2003">
 <defs>
  <style type="text/css">
   <![CDATA[
    .fil0 {fill:black}
   ]]>
  </style>
 </defs>
 <g id="Camada_x0020_1">
  <metadata id="CorelCorpID_0Corel-Layer"/>
  <path class="fil0" d="M506927.9 287201l108399.8 0 25861.9 90518.1c15868.9,-19968.1 40365.2,-32771.2 67852.8,-32771.2l28873.3 0 0 86620.5 -81339.5 0 17353.1 60733.7c36862.8,9951.6 63986.4,43623.8 63986.4,83633.8 0,47840.5 -38780,86620.5 -86620.4,86620.5 -37714.5,0 -69801.7,-24103.6 -81691.6,-57747.1l-125351.8 0c-11891,33643.5 -43976.2,57747.1 -81691.4,57747.1 -47839.1,0 -86620.4,-38780 -86620.4,-86620.5l0 -86620.4c0,-47839.2 38781.3,-86620.5 86620.4,-86620.5l86620.5 0 0 144367.4 115493.8 0 0 -202114.5 -57746.9 0 0 -57746.9zm144367.4 317608.3c-15946.7,0 -28873.4,-12926.7 -28873.4,-28873.4 0,-15946.9 12926.7,-28873.5 28873.4,-28873.5 15946.9,0 28873.5,12926.6 28873.5,28873.5 0,15946.7 -12926.6,28873.4 -28873.5,28873.4z"/>
 </g>
</svg>
