<?xml version="1.0" encoding="UTF-8"?>
<!DOCTYPE svg PUBLIC "-//W3C//DTD SVG 1.1//EN" "http://www.w3.org/Graphics/SVG/1.1/DTD/svg11.dtd">
<!-- Creator: CorelDRAW 2020 (64 Bit) -->
<svg xmlns="http://www.w3.org/2000/svg" xml:space="preserve" width="1000mm" height="1000mm" version="1.1" style="shape-rendering:geometricPrecision; text-rendering:geometricPrecision; image-rendering:optimizeQuality; fill-rule:evenodd; clip-rule:evenodd"
viewBox="0 0 1000000 1000000"
 xmlns:xlink="http://www.w3.org/1999/xlink"
 xmlns:xodm="http://www.corel.com/coreldraw/odm/2003">
 <defs>
  <style type="text/css">
   <![CDATA[
    .fil0 {fill:black;fill-rule:nonzero}
   ]]>
  </style>
 </defs>
 <g id="Camada_x0020_1">
  <metadata id="CorelCorpID_0Corel-Layer"/>
  <g id="_2559995934496">
   <path class="fil0" d="M339245.8 392881.6l0 -142865.5 -71432.9 0 0 178582c0,59176.5 47972.6,107149 107149.1,107149l0 214298.2 71432.9 0 0 -214298.2c59176.5,0 107149.1,-47972.5 107149.1,-107149l0 -178582 -71432.9 0 0 142865.5 -35716.2 0 0 -142865.5 -71432.9 0 0 142865.5 -35716.2 0z"/>
   <path class="fil0" d="M732125.7 750045.3l0 -500029.2 -71432.6 0 -67818.4 237357.8c-2396.7,8397 -3614.5,17086.9 -3614.5,25820 0,44132.6 30419.6,81160.1 71432.9,91260.7l0 145590.7 71432.6 0z"/>
  </g>
 </g>
</svg>
