<?xml version="1.0" encoding="UTF-8"?>
<!DOCTYPE svg PUBLIC "-//W3C//DTD SVG 1.1//EN" "http://www.w3.org/Graphics/SVG/1.1/DTD/svg11.dtd">
<!-- Creator: CorelDRAW 2020 (64 Bit) -->
<svg xmlns="http://www.w3.org/2000/svg" xml:space="preserve" width="1000mm" height="1000mm" version="1.1" style="shape-rendering:geometricPrecision; text-rendering:geometricPrecision; image-rendering:optimizeQuality; fill-rule:evenodd; clip-rule:evenodd"
viewBox="0 0 1000000 1000000"
 xmlns:xlink="http://www.w3.org/1999/xlink"
 xmlns:xodm="http://www.corel.com/coreldraw/odm/2003">
 <defs>
  <style type="text/css">
   <![CDATA[
    .str0 {stroke:#373435;stroke-width:200;stroke-miterlimit:22.9256}
    .fil0 {fill:#373435}
   ]]>
  </style>
 </defs>
 <g id="Camada_x0020_1">
  <metadata id="CorelCorpID_0Corel-Layer"/>
  <g id="_2401309941520">
   <path class="fil0 str0" d="M477581.3 116495.5l44776 0 0 133625.8c-7374.6,-690 -14838.6,-1061.7 -22388,-1061.7 -7549.4,0 -15013.4,371.7 -22388,1061.7l0 -133625.8z"/>
   <path class="fil0 str0" d="M649960.3 195462.6l38777.2 22388 -45583.7 78953.2c-11962.5,-8930.4 -24739.7,-16774.8 -38201.3,-23385.5l45007.8 -77955.7z"/>
   <polygon class="fil0 str0" points="782149.4,311262.5 804537.4,350039.7 724089.2,396486.5 701701.2,357709.3 "/>
   <polygon class="fil0 str0" points="883504.4,477642.7 883504.4,522418.7 745834.9,522418.7 745834.9,477642.7 "/>
   <polygon class="fil0 str0" points="804537.4,650021.7 782149.4,688798.9 701701.2,642352.1 724089.2,603574.9 "/>
   <path class="fil0 str0" d="M688737.5 782210.8l-38777.2 22388 -45007.8 -77955.7c13462.9,-6609 26238.5,-14455.5 38201.3,-23385.5l45583.7 78953.2z"/>
   <path class="fil0 str0" d="M522357.3 883565.9l-44776 0 0 -133625.8c7374.6,690 14838.6,1061.7 22388,1061.7 7549.4,0 15013.4,-371.7 22388,-1061.7l0 133625.8z"/>
   <path class="fil0 str0" d="M349978.3 804598.8l-38777.2 -22388 45583.7 -78953.2c11962.5,8930.4 24739.7,16774.8 38201.3,23385.5l-45007.8 77955.7z"/>
   <polygon class="fil0 str0" points="217789.2,688798.9 195401.2,650021.7 275849.4,603574.9 298237.4,642352.1 "/>
   <polygon class="fil0 str0" points="116434.2,522418.7 116434.2,477642.7 254103.7,477642.7 254103.7,522418.7 "/>
   <polygon class="fil0 str0" points="195401.2,350039.7 217789.2,311262.5 298237.4,357709.3 275849.4,396486.5 "/>
   <path class="fil0 str0" d="M311201.1 217850.6l38777.2 -22388 45007.8 77955.7c-13462.9,6609 -26238.5,14455.5 -38201.3,23385.5l-45583.7 -78953.2z"/>
   <path class="fil0 str0" d="M499969.3 94107.5c12364.6,0 22388,10023.5 22388,22388 0,12364.6 -10023.4,22388 -22388,22388 -12364.6,0 -22388,-10023.4 -22388,-22388 0,-12364.5 10023.4,-22388 22388,-22388z"/>
   <path class="fil0 str0" d="M669348.9 184268.7c12364.6,0 22388,10023.4 22388,22388 0,12364.6 -10023.4,22388 -22388,22388 -12364.6,0 -22388,-10023.4 -22388,-22388 0,-12364.6 10023.4,-22388 22388,-22388z"/>
   <path class="fil0 str0" d="M793343.3 308263.1c12364.6,0 22388,10023.4 22388,22388 0,12364.6 -10023.4,22388 -22388,22388 -12364.6,0 -22388,-10023.4 -22388,-22388 0,-12364.6 10023.4,-22388 22388,-22388z"/>
   <path class="fil0 str0" d="M883504.5 477642.7c12364.5,0 22388,10023.4 22388,22388 0,12364.6 -10023.5,22388 -22388,22388 -12364.6,0 -22388,-10023.4 -22388,-22388 0,-12364.6 10023.4,-22388 22388,-22388z"/>
   <path class="fil0 str0" d="M793343.3 647022.3c12364.6,0 22388,10023.4 22388,22388 0,12364.6 -10023.4,22388 -22388,22388 -12364.6,0 -22388,-10023.4 -22388,-22388 0,-12364.6 10023.4,-22388 22388,-22388z"/>
   <path class="fil0 str0" d="M669348.9 771016.7c12364.6,0 22388,10023.4 22388,22388 0,12364.6 -10023.4,22388 -22388,22388 -12364.6,0 -22388,-10023.4 -22388,-22388 0,-12364.6 10023.4,-22388 22388,-22388z"/>
   <path class="fil0 str0" d="M499969.3 861177.9c12364.6,0 22388,10023.4 22388,22388 0,12364.5 -10023.4,22388 -22388,22388 -12364.6,0 -22388,-10023.5 -22388,-22388 0,-12364.6 10023.4,-22388 22388,-22388z"/>
   <path class="fil0 str0" d="M330589.7 184268.7c-12364.6,0 -22388,10023.4 -22388,22388 0,12364.6 10023.4,22388 22388,22388 12364.6,0 22388,-10023.4 22388,-22388 0,-12364.6 -10023.4,-22388 -22388,-22388z"/>
   <path class="fil0 str0" d="M206595.3 308263.1c-12364.6,0 -22388,10023.4 -22388,22388 0,12364.6 10023.4,22388 22388,22388 12364.6,0 22388,-10023.4 22388,-22388 0,-12364.6 -10023.4,-22388 -22388,-22388z"/>
   <path class="fil0 str0" d="M116434.1 477642.7c-12364.5,0 -22388,10023.4 -22388,22388 0,12364.6 10023.5,22388 22388,22388 12364.6,0 22388,-10023.4 22388,-22388 0,-12364.6 -10023.4,-22388 -22388,-22388z"/>
   <path class="fil0 str0" d="M206595.3 647022.3c-12364.6,0 -22388,10023.4 -22388,22388 0,12364.6 10023.4,22388 22388,22388 12364.6,0 22388,-10023.4 22388,-22388 0,-12364.6 -10023.4,-22388 -22388,-22388z"/>
   <path class="fil0 str0" d="M330589.7 771016.7c-12364.6,0 -22388,10023.4 -22388,22388 0,12364.6 10023.4,22388 22388,22388 12364.6,0 22388,-10023.4 22388,-22388 0,-12364.6 -10023.4,-22388 -22388,-22388z"/>
  </g>
  <circle class="fil0 str0" cx="499969.3" cy="500030.7" r="218791.6"/>
 </g>
</svg>
