<?xml version="1.0" encoding="UTF-8"?>
<!DOCTYPE svg PUBLIC "-//W3C//DTD SVG 1.1//EN" "http://www.w3.org/Graphics/SVG/1.1/DTD/svg11.dtd">
<!-- Creator: CorelDRAW 2020 (64 Bit) -->
<svg xmlns="http://www.w3.org/2000/svg" xml:space="preserve" width="1000mm" height="1000mm" version="1.1" style="shape-rendering:geometricPrecision; text-rendering:geometricPrecision; image-rendering:optimizeQuality; fill-rule:evenodd; clip-rule:evenodd"
viewBox="0 0 1000000 1000000"
 xmlns:xlink="http://www.w3.org/1999/xlink"
 xmlns:xodm="http://www.corel.com/coreldraw/odm/2003">
 <defs>
  <style type="text/css">
   <![CDATA[
    .fil0 {fill:black;fill-rule:nonzero}
   ]]>
  </style>
 </defs>
 <g id="Camada_x0020_1">
  <metadata id="CorelCorpID_0Corel-Layer"/>
  <path class="fil0" d="M263668.8 169209.7l0 141780.4 78766.8 78767.2 -22054.7 110273.4 -103972.4 0 0 -94520.1 -94520.1 0 0 425341.1 283560.8 0 0 -141780.4c0,-52203.7 42318.1,-94520.5 94520.1,-94520.5 52202,0 94520.1,42316.8 94520.1,94520.5l0 141780.4 283560.8 0 0 -425341.1 -94520.1 0 0 94520.1 -103972.4 0 -22056.1 -110273.4 78768.2 -78767.2 0 -141780.4 -94520.1 0 0 94520.5 -94520.2 0 0 -94520.5 -94520.4 0 0 94520.5 -94520.2 0 0 -94520.5 -94520.1 0z"/>
 </g>
</svg>
