<?xml version="1.0" encoding="UTF-8"?>
<!DOCTYPE svg PUBLIC "-//W3C//DTD SVG 1.1//EN" "http://www.w3.org/Graphics/SVG/1.1/DTD/svg11.dtd">
<!-- Creator: CorelDRAW 2020 (64 Bit) -->
<svg xmlns="http://www.w3.org/2000/svg" xml:space="preserve" width="1000mm" height="1000mm" version="1.1" style="shape-rendering:geometricPrecision; text-rendering:geometricPrecision; image-rendering:optimizeQuality; fill-rule:evenodd; clip-rule:evenodd"
viewBox="0 0 1000000 1000000"
 xmlns:xlink="http://www.w3.org/1999/xlink"
 xmlns:xodm="http://www.corel.com/coreldraw/odm/2003">
 <defs>
  <style type="text/css">
   <![CDATA[
    .fil0 {fill:black}
    .fil1 {fill:black;fill-rule:nonzero}
   ]]>
  </style>
 </defs>
 <g id="Camada_x0020_1">
  <metadata id="CorelCorpID_0Corel-Layer"/>
  <g id="_2560125581440">
   <path class="fil0" d="M262999.6 466177.8l128661.3 -188246.5c25727.4,-30872.7 63838.7,-48722.9 104026,-48722.9l4282.4 0 0 135411 135411.3 33852.9 101558.4 169263.9 -27505.4 41259.8c-25115.4,37671.6 -67394.4,60298.6 -112668.9,60298.6l-62942.5 0 -67705.8 101558.4 -67705.5 0 -135411.3 -304675.2zm304675.2 67705.8c18697,0 33852.9,-15156.4 33852.9,-33852.9 0,-18696.2 -15155.9,-33852.9 -33852.9,-33852.9 -18696.5,0 -33852.6,15156.7 -33852.6,33852.9 0,18696.5 15156.1,33852.9 33852.6,33852.9z"/>
   <path class="fil1" d="M567674.8 244979.5l0 66777.1 67705.8 16926.4 0 -99474.6 -4282.4 0c-22376.8,0 -44113.5,5534.7 -63423.4,15771.1z"/>
  </g>
 </g>
</svg>
