<?xml version="1.0" encoding="UTF-8"?>
<!DOCTYPE svg PUBLIC "-//W3C//DTD SVG 1.1//EN" "http://www.w3.org/Graphics/SVG/1.1/DTD/svg11.dtd">
<!-- Creator: CorelDRAW 2020 (64 Bit) -->
<svg xmlns="http://www.w3.org/2000/svg" xml:space="preserve" width="1000mm" height="1000mm" version="1.1" style="shape-rendering:geometricPrecision; text-rendering:geometricPrecision; image-rendering:optimizeQuality; fill-rule:evenodd; clip-rule:evenodd"
viewBox="0 0 1000000 1000000"
 xmlns:xlink="http://www.w3.org/1999/xlink"
 xmlns:xodm="http://www.corel.com/coreldraw/odm/2003">
 <defs>
  <style type="text/css">
   <![CDATA[
    .fil0 {fill:black;fill-rule:nonzero}
   ]]>
  </style>
 </defs>
 <g id="Camada_x0020_1">
  <metadata id="CorelCorpID_0Corel-Layer"/>
  <path class="fil0" d="M628332.1 371667.9c0,8233.3 -776.8,16285.6 -2256,24087.7 750.8,-12.8 1501.8,-19.6 2256,-19.6 70891.4,0 128362.5,57469.9 128362.5,128362.8 0,70891.3 -57471.1,128362.5 -128362.5,128362.5 -40604.4,0 -76806.6,-18853.2 -100328.1,-48283.6l36146.6 120487.8 0 32090.5 -128362.6 0 0 -32090.5 36146.6 -120487.8c-23521.5,29430.4 -59722.9,48283.6 -100328.1,48283.6 -70892.6,0 -128362.5,-57471.2 -128362.5,-128362.5 0,-70892.9 57469.9,-128362.8 128362.5,-128362.8 753.9,0 1505.7,6.5 2256.5,19.6 -1481.4,-7802.1 -2256.5,-15854.4 -2256.5,-24087.7 0,-70892.6 57470,-128362.5 128362.8,-128362.5 70891.6,0 128362.8,57469.9 128362.8,128362.5z"/>
 </g>
</svg>
